/* XPM */
static char *debug_e[] = {
/* columns rows colors chars-per-pixel */
"128 128 2 1 ",
"  c #1D39E0",
". c white",
/* pixels */
".......                                                                                                                  .......",
".........                                                                                                              .........",
".........                                                                                                            ...........",
"..........                                                                                                          ............",
"...........                                                                                                        .............",
"............                                                                                                    ................",
"............                                                                                                   .................",
" ............                                                                                                 ................. ",
"  ............                                                                                               ................   ",
"   .............                                                                                           .................    ",
"    ............                                                                                         .................      ",
"    .............                                                                                       .................       ",
"     .............                                                                                     ................         ",
"      ............                                                                                   ................           ",
"       ............                                                                                 ................            ",
"        ............                                                                               ................             ",
"         ............                                                                             ...............               ",
"         ............                                                                            ..............                 ",
"          ............                                                                          ...............                 ",
"           ............                                                                        ..............                   ",
"            ............                                                                     ..............                     ",
"             ............                                                                   ..............                      ",
"             ............                                                                  ..............                       ",
"              ............                                                                 .............                        ",
"               .............                                                              .............                         ",
"                .............                                                            .............                          ",
"                ..............                                                          .............                           ",
"                 ..............                                                       .............                             ",
"                  ..............                                                      ............                              ",
"                   ..............                                                    .............                              ",
"                    ..............                                                  .............                               ",
"                     ..............                                                .............                                ",
"                      ..............                                               ............                                 ",
"                       ..............                                             ............                                  ",
"                        ..............                                           ............                                   ",
"                         ..............                                         ............                                    ",
"                          ..............                                        ...........                                     ",
"                           .............                                       ...........                                      ",
"                            .............                                     ............                                      ",
"                             .............                                    ...........                                       ",
"                               ............                                  ...........                                        ",
"                                ............                                 ..........                                         ",
"                                .............                               ...........                                         ",
"                                 .............                             ...........                                          ",
"                                  ............                            ...........                                           ",
"                                  ..............                          ...........                                           ",
"                                    .............                       ............                                            ",
"                                    ..............                     .............                                            ",
"                                     .............                     ............                                             ",
"                                       .............                  ............                                              ",
"                                       ..............                ............                                               ",
"                                        ..............               ............                                               ",
"                                          ..............            ............                                                ",
"                                           .............          ............                                                  ",
"                                           ...............       .............                                                  ",
"                                            ...............     .............                                                   ",
"                                              ..............   .............                                                    ",
"                                               .............. ..............                                                    ",
"                                                ...........................                                                     ",
"                                                 .........................                                                      ",
"                                                  ......................                                                        ",
"                                                    ....................                                                        ",
"                                                     .................                                                          ",
"                                                      ...............                                                           ",
"                                                       ..............                                                           ",
"                                                       ................                                                         ",
"                                                       .................                                                        ",
"                                                     ....................                                                       ",
"                                                    .....................                                                       ",
"                                                    .......................                                                     ",
"                                                   .........................                                                    ",
"                                                  ...........................                                                   ",
"                                                 .............   .............                                                  ",
"                                                .............     .............                                                 ",
"                                               .............      ..............                                                ",
"                                               ............        ..............                                               ",
"                                              ............           ..............                                             ",
"                                             ............             ..............                                            ",
"                                            ............               ..............                                           ",
"                                           .............                ..............                                          ",
"                                          .............                  .............                                          ",
"                                         .............                    ..............                                        ",
"                                       ..............                      ..............                                       ",
"                                      ..............                         .............                                      ",
"                                     ..............                           .............                                     ",
"                                    ..............                             .............                                    ",
"                                   ..............                              ..............                                   ",
"                                  ..............                                ...............                                 ",
"                                 ..............                                   ..............                                ",
"                                .............                                      ..............                               ",
"                               .............                                        .............                               ",
"                              .............                                          .............                              ",
"                            ...............                                           .............                             ",
"                           ..............                                              ..............                           ",
"                         ...............                                                 .............                          ",
"                        ...............                                                  ..............                         ",
"                       ...............                                                    ..............                        ",
"                      ...............                                                      ..............                       ",
"                     ...............                                                        ..............                      ",
"                    ..............                                                           ..............                     ",
"                   ..............                                                              .............                    ",
"                  .............                                                                ..............                   ",
"                  ............                                                                   .............                  ",
"                 ............                                                                    .............                  ",
"                ............                                                                       .............                ",
"               ............                                                                         .............               ",
"              ............                                                                           ............               ",
"             ............                                                                             ............              ",
"           ..............                                                                              ............             ",
"         ...............                                                                               .............            ",
"        ...............                                                                                 ............            ",
"        ..............                                                                                    ...........           ",
"       ..............                                                                                     ...........           ",
"       .............                                                                                       ............         ",
"     ..............                                                                                         ............        ",
"     ............                                                                                            ............       ",
"   ............                                                                                              .............      ",
"   ............                                                                                               .............     ",
"  ............                                                                                                ..............    ",
" .............                                                                                                 .............    ",
".............                                                                                                   ..............  ",
"............                                                                                                      ..............",
"...........                                                                                                        .............",
"..........                                                                                                         .............",
".........                                                                                                            ...........",
"........                                                                                                             ...........",
".......                                                                                                               ..........",
"......                                                                                                                 ........."
};
