/* XPM */
static char *debug_door[] = {
/* columns rows colors chars-per-pixel */
"128 128 2 1 ",
"  c black",
". c white",
/* pixels */
"................................................................................................................................",
"................................................................................................................................",
"................................................................................................................................",
"................................................................................................................................",
"................................................................................................................................",
"................................................................................................................................",
"................................................................................................................................",
"................................................................................................................................",
"................................................................................................................................",
"................................................................................................................................",
"................................................................................................................................",
"................................................................................................................................",
"................................................................................................................................",
"................................................................................................................................",
"................................................................................................................................",
"................................................................................................................................",
"................................................................................................................................",
"................................................................................................................................",
"................................................................................................................................",
"................................................................................................................................",
"................................................................................................................................",
"................................................................................................................................",
"................................................................................................................................",
"................................................................................................................................",
"................................................................................................................................",
"................................................................................................................................",
"................................................................................................................................",
"................................................................................................................................",
"......................................       ...................................................................................",
"......................................                    ......................................................................",
"......................................                          ................................................................",
"......................................                               ...........................................................",
"......................................                                 .........................................................",
"......................................                                     .....................................................",
"......................................                                       ...................................................",
"......................................                                         .................................................",
".......................................       ......                             ...............................................",
".......................................       ............                         .............................................",
".......................................       .................                      ...........................................",
".......................................       ...................                    ...........................................",
".......................................       .......................                 ..........................................",
".......................................       .........................                .........................................",
".......................................       ...........................              .........................................",
".......................................       .............................             ........................................",
".......................................       ...............................           ........................................",
".......................................       ................................           .......................................",
".......................................       .................................          .......................................",
".......................................       ..................................         .......................................",
".......................................       ..................................         .......................................",
".......................................       ...................................         ......................................",
".......................................       ...................................         ......................................",
".......................................       ....................................        ......................................",
".......................................       ....................................        ......................................",
".......................................       ....................................        ......................................",
".......................................       ....................................        ......................................",
".......................................       .....................................       ......................................",
".......................................       .....................................       ......................................",
".......................................       .....................................       ......................................",
".......................................       .....................................       ......................................",
".......................................       .....................................       ......................................",
".......................................       .....................................       ......................................",
".......................................       .....................................       ......................................",
"......................................        .....................................       ......................................",
"......................................        .....................................       ......................................",
"......................................        .....................................       ......................................",
"......................................        .....................................       ......................................",
"......................................        .....................................       ......................................",
"......................................        .....................................       ......................................",
"......................................        .....................................       ......................................",
"......................................        .....................................       ......................................",
"......................................        ....................................        ......................................",
"......................................        ....................................        ......................................",
"......................................        ....................................        ......................................",
"......................................        ....................................        ......................................",
".......................................       ....................................        ......................................",
".......................................       ...................................         ......................................",
".......................................       ...................................        .......................................",
".......................................       ...................................        .......................................",
".......................................       ...................................        .......................................",
".......................................       ..................................         .......................................",
".......................................       .................................          .......................................",
".......................................       ................................          ........................................",
".......................................       ................................          ........................................",
".......................................       ...............................           ........................................",
".......................................       ...............................           ........................................",
"......................................        ..............................           .........................................",
"......................................        ............................            ..........................................",
"......................................        ...........................            ...........................................",
"......................................        ...........................            ...........................................",
"......................................        ........................               ...........................................",
"......................................        .......................               ............................................",
"......................................       ........................              .............................................",
"......................................       .......................              ..............................................",
"......................................       ......................             ................................................",
"......................................       ....................               ................................................",
"......................................       ..................                .................................................",
"......................................       .................              ....................................................",
"....................................         ..............                 ....................................................",
"....................................          ............                 .....................................................",
"....................................          ........                    ......................................................",
"....................................          ...                        .......................................................",
"....................................                                   .........................................................",
"....................................                                 ...........................................................",
"....................................                                ............................................................",
"....................................                              ..............................................................",
".....................................                           ................................................................",
".....................................                       ....................................................................",
"......................................                 .........................................................................",
".......................................       ..................................................................................",
"................................................................................................................................",
"................................................................................................................................",
"................................................................................................................................",
"................................................................................................................................",
"................................................................................................................................",
"................................................................................................................................",
"................................................................................................................................",
"................................................................................................................................",
"................................................................................................................................",
"................................................................................................................................",
"................................................................................................................................",
"................................................................................................................................",
"................................................................................................................................",
"................................................................................................................................",
"................................................................................................................................",
"................................................................................................................................",
"................................................................................................................................",
"................................................................................................................................",
"................................................................................................................................"
};
