/* XPM */
static char *made_door_frames05[] = {
/* columns rows colors chars-per-pixel */
"128 128 13 1 ",
"  c #513418",
". c #553619",
"X c #5A3A1B",
"o c #64401E",
"O c #624326",
"+ c #6D4621",
"@ c #704822",
"# c #764C24",
"$ c #845528",
"% c #8B5A2B",
"& c #9A9A9A",
"* c #ACACAC",
"= c None",
/* pixels */
"................................................................................................................................",
".oo#############################################################o############################################################oo.",
".oo############################################@@@@@@@@@########o#########@@@@@@@@@##########################################oo.",
".oo############################################@@@@@@@@@########o#########@@@@@@@@@#########################@@@@@@@@@@@######oo.",
".oo######@@@@@@@@@##############################################o###########################################@@@@@@@@@@@######oo.",
".oo######@@@@@@@@@##############################################o############################################################oo.",
".oo#############################################################o############################################################oo.",
".oooooooooooooooooooooooooooooooooooooooooooooooooooooooooooooooooooooooooooooooooooooooooooooooooooooooooooooooooooooooooooooo.",
".ooX========================================================================================================================Xoo.",
".ooOX======================================================================================================================XOoo.",
".oo%OX====================================================================================================================XO%oo.",
".oo%%OX==================================================================================================================XO%%oo.",
".oo%%%OX================================================================================================================XO%%%oo.",
".oo%%%%OX==============================================================================================================XO%%%%oo.",
".oo%%%%%OX============================================================================================================XO%%%%%oo.",
".oo%%%%%%OX==========================================================================================================XO%%%%%%oo.",
".oo%%%%%%%OX========================================================================================================XO%%%%%%%oo.",
".oo%%%%%%%%OX======================================================================================================XO%%%%%%%%oo.",
".oo%%%%%%%%%OX====================================================================================================XO%%%%%%%%%oo.",
".oo%%%%%%%%%%OX==================================================================================================XO%%%%%%%%%%oo.",
".oo%%%%%%%%%%%OX================================================================================================XO%%%%%%%%%%%oo.",
".oo%%%%%%%%%%%%OX==============================================================================================XO%%%%%%%%%%%%oo.",
".oo%%%%%%%%%%%%%OX============================================================================================XO%%%%%%%%%%%%%oo.",
".oo%%%%%%%%%%%%%%+============================================================================================+%%%%%%%%%%%%%%oo.",
".oo%%%%%%%%%%%%%%+============================================================================================+%%%%%%%%%%%%%%oo.",
".oo%%%%%%%%%%%%%%+============================================================================================+%%%%%%%%%%%%%%oo.",
".oo%%%%%%%%%%%%%%+============================================================================================+%%%%%%%%%%%%%%oo.",
".oo%%%%%%%%%%%%%%+============================================================================================+%%%%%%%%%%%%%%oo.",
".oo%%%%%%%%%%%%%%+============================================================================================+%%%%%%%%%%%%%%oo.",
".oo%%%%%%%%%%%%%%+============================================================================================+%%%%%%%%%%%%%%oo.",
".oo%%%%%%%%%%%%%%+============================================================================================+%%%%%%%%%%%%%%oo.",
".oo%%%%%%%%%%%%%%+============================================================================================+%%%%%%%%%%%%%%oo.",
".oo%%%%%%%%%%%%%%+============================================================================================+%%%%%%%%%%%%%%oo.",
".oo%%%%%%%%%%%%%%+============================================================================================+%%%%%%%%%%%%%%oo.",
".oo%%%%%%%%%%%%%%+============================================================================================+%%%%%%%%%%%%%%oo.",
".oo%%%%%%%%%%%%%%+============================================================================================+%%%%%%%%%%%%%%oo.",
".oo%%%%%%%%%%%%%%+============================================================================================+%%%%%%%%%%%%%%oo.",
".oo%%%%%%%%%%%%%%+============================================================================================+%%%%%%%%%%%%%%oo.",
".oo%%%%%%%$%%%%%%+============================================================================================+%%%%%%$%%%%%%%oo.",
".oo%%%%%%$$%%%%%%+============================================================================================+%%%%%%$$%%%%%%oo.",
".oo%%%%%$%%%%%%%%+============================================================================================+%%%%%%%%$%%%%%oo.",
".oo%%%%$%%%%%%%%%+============================================================================================+%%%%%%%%%$%%%%oo.",
".oo%%%%$%%%%%%%%%+============================================================================================+%%%%%%%%%$%%%%oo.",
".oo%%%$$%%%%%%%%%+============================================================================================+%%%%%%%%%$$%%%oo.",
".oo%%%$%%%%%%%%%%+============================================================================================+%%%%%%%%%%$%%%oo.",
".oo%%%%%%%%%%%%%%+============================================================================================+%%%%%%%%%%%%%%oo.",
".oo%%%%%%%%%%%%%%+============================================================================================+%%%%%%%%%%%%%%oo.",
".oo%%%%%%%%%%%%%%+============================================================================================+%%%%%%%%%%%%%%oo.",
".oo%%%%%%%%%%%%%%+============================================================================================+%%%%%%%%%%%%%%oo.",
".oo%%%%%%%%%%%%%%+============================================================================================+%%%%%%%%%%%%%%oo.",
".oo%%%%%%%%%%%%%%+============================================================================================+%%%%%%%%%%%%%%oo.",
".oo%%%%%%%%%%%%%%+============================================================================================+%%%%%%%%%%%%%%oo.",
".oo%%%%%%%%%%%%%%+============================================================================================+%%%%%%%%%%%%%%oo.",
".oo%%%%%%%%%%%%%%+============================================================================================+%%%%%%%%%%%%%%oo.",
".oo%%%%%%%%%%%%%%+============================================================================================+%%%%%%%%%%%%%%oo.",
".oo%%%%%%%%%%%%%%+============================================================================================+%%%%%%%%%%%%%%oo.",
".oo%%%%%%%%%$%%%%+============================================================================================+%%%%$%%%%%%%%%oo.",
".oo%%%%%%%%$$%%%%+============================================================================================+%%%%$$%%%%%%%%oo.",
".oo%%%%%%%$$%%%%%+============================================================================================+%%%%%$$%%%%%%%oo.",
".oo%%%%%%%$%%%%%%+============================================================================================+%%%%%%$%%%%%%%oo.",
".oo%%%%%$$%%%%%%%+============================================================================================+%%%%%%%$$%%%%%oo.",
".oo%%%%%$%%%%%%%%+============================================================================================+%%%%%%%%$%%%%%oo.",
".oo%%%%%%%%%%%%%%+============================================================================================+%%%%%%%%%%%%%%oo.",
".oo%%%%%%%%%%%%%%+============================================================================================+%%%%%%%%%%%%%%oo.",
".oo%%%%%%%%%%%%%%+============================================================================================+%%%%%%%%%%%%%%oo.",
".oo%%%%%%%**%%%%%+============================================================================================+%%%%%**%%%%%%%oo.",
".oo%%%%%%*&&*%%%%+============================================================================================+%%%%*&&*%%%%%%oo.",
".oo%%%%%%*&*%%%%%+============================================================================================+%%%%%*&*%%%%%%oo.",
".oo%%%%%*&*%%%%%%+============================================================================================+%%%%%%*&*%%%%%oo.",
".oo%%%%*&*%%%%%%%+============================================================================================+%%%%%%%*&*%%%%oo.",
".oo%%%%%*%%%%%%%%+============================================================================================+%%%%%%%%*%%%%%oo.",
".oo%%%%%%%%%%%%%%+============================================================================================+%%%%%%%%%%%%%%oo.",
".oo%%%%%%%%%%%%%%+============================================================================================+%%%%%%%%%%%%%%oo.",
".oo%%%%%%%%%%%%%%+============================================================================================+%%%%%%%%%%%%%%oo.",
".oo%%%%%%%%%%%%%%+============================================================================================+%%%%%%%%%%%%%%oo.",
".oo%%%%%%%%%%%%%%+============================================================================================+%%%%%%%%%%%%%%oo.",
".oo%%%%%%%%%%%%%%+============================================================================================+%%%%%%%%%%%%%%oo.",
".oo%%%%%%%%%%%%%%+============================================================================================+%%%%%%%%%%%%%%oo.",
".oo%%%%%%%%%%%%%%+============================================================================================+%%%%%%%%%%%%%%oo.",
".oo%%%%%%%%%%%%%%+============================================================================================+%%%%%%%%%%%%%%oo.",
".oo%%%%%%$%%%%%%%+============================================================================================+%%%%%%%$%%%%%%oo.",
".oo%%%%%$$%%%%%%%+============================================================================================+%%%%%%%$$%%%%%oo.",
".oo%%%%%$%%%%%%%%+============================================================================================+%%%%%%%%$%%%%%oo.",
".oo%%%%%$%%%%%%%%+============================================================================================+%%%%%%%%$%%%%%oo.",
".oo%%%%$%%%%%%%%%+============================================================================================+%%%%%%%%%$%%%%oo.",
".oo%%%%$%%%%%%%%%+============================================================================================+%%%%%%%%%$%%%%oo.",
".oo%%%$%%%%%%%%%%+============================================================================================+%%%%%%%%%%$%%%oo.",
".oo%%%$%%%%%%%%%%+============================================================================================+%%%%%%%%%%$%%%oo.",
".oo%%%%%%%%%%%%%%+============================================================================================+%%%%%%%%%%%%%%oo.",
".oo%%%%%%%%%$%%%%+============================================================================================+%%%%$%%%%%%%%%oo.",
".oo%%%%%%%%%$%%%%+============================================================================================+%%%%$%%%%%%%%%oo.",
".oo%%%%%%%%$%%%%%+============================================================================================+%%%%%$%%%%%%%%oo.",
".oo%%%%%%%%$%%%%%+============================================================================================+%%%%%$%%%%%%%%oo.",
".oo%%%%%%%$%%%%%%+============================================================================================+%%%%%%$%%%%%%%oo.",
".oo%%%%%%%$%%%%%%+============================================================================================+%%%%%%$%%%%%%%oo.",
".oo%%%%%%$$%%%%%%+============================================================================================+%%%%%%$$%%%%%%oo.",
".oo%%%%%%$%%%%%%%+============================================================================================+%%%%%%%$%%%%%%oo.",
".oo%%%%%%$%%%%%%%+============================================================================================+%%%%%%%$%%%%%%oo.",
".oo%%%%%%%%%%%%%%+============================================================================================+%%%%%%%%%%%%%%oo.",
".oo%%%%%%%%%%%%%%+============================================================================================+%%%%%%%%%%%%%%oo.",
".oo%%%%%%%%%%%%%%+============================================================================================+%%%%%%%%%%%%%%oo.",
".oo%%%%%%%%%%%%%%+============================================================================================+%%%%%%%%%%%%%%oo.",
".oo%%%%%%%%%%%%%%+============================================================================================+%%%%%%%%%%%%%%oo.",
".oo%%%%%%%%%%%%%%+============================================================================================+%%%%%%%%%%%%%%oo.",
".oo%%%%%%%%%%%%%%+============================================================================================+%%%%%%%%%%%%%%oo.",
".oo%%%%%%%%%%%%%%+============================================================================================+%%%%%%%%%%%%%%oo.",
".oo%%%%%%$%%%%%%%+============================================================================================+%%%%%%%$%%%%%%oo.",
".oo%%%%%$$%%%%%%%+============================================================================================+%%%%%%%$$%%%%%oo.",
".oo%%%%%$%%%%%%%%+============================================================================================+%%%%%%%%$%%%%%oo.",
".oo%%%%%$%%%%%%%%+============================================================================================+%%%%%%%%$%%%%%oo.",
".oo%%%%%$%%%%%%%%+============================================================================================+%%%%%%%%$%%%%%oo.",
".oo%%%%$$%%%%%%%%+============================================================================================+%%%%%%%%$$%%%%oo.",
".oo%%%%$%%%%%%%%OX============================================================================================XO%%%%%%%%$%%%%oo.",
".oo%%%%%%%%%%%%OX==============================================================================================XO%%%%%%%%%%%%oo.",
".oo%%%%%%%%%%%OX================================================================================================XO%%%%%%%%%%%oo.",
".oo%%%%%%%%%%OX==================================================================================================XO%%%%%%%%%%oo.",
".oo%%%%%%%%%OX====================================================================================================XO%%%%%%%%%oo.",
".oo%%%%%%%%OX======================================================================================================XO%%%%%%%%oo.",
".oo%%%%%%%OX========================================================================================================XO%%%%%%%oo.",
".oo%%%%%%OX==========================================================================================================XO%%%%%%oo.",
".oo%%%%%OX============================================================================================================XO%%%%%oo.",
".oo%%%%OX==============================================================================================================XO%%%%oo.",
".oo%%%OX================================================================================================================XO%%%oo.",
".oo%%OX==================================================================================================================XO%%oo.",
".oo%OX====================================================================================================================XO%oo.",
".ooOX======================================================================================================================XOoo.",
".ooX========================================================================================================================Xoo.",
"..XX....ooooX XXoXX...XooXXXooooXX....XXXooooooooooXXX......XXXXXXXXXX...ooooXXXX......XXXXoooXXX.......  XXooXX...XXoooXX......"
};
