/* XPM */
static char *made_door_frames02[] = {
/* columns rows colors chars-per-pixel */
"128 128 14 1 ",
"  c #513418",
". c #553619",
"X c #5A3A1B",
"o c #64401E",
"O c #624326",
"+ c #6D4621",
"@ c #704822",
"# c #764C24",
"$ c #845528",
"% c #8B5A2B",
"& c #9A9A9A",
"* c #ACACAC",
"= c #C0C0C0",
"- c None",
/* pixels */
"................................................................................................................................",
".oo#############################################################o############################################################oo.",
".oo############################################@@@@@@@@@########o#########@@@@@@@@@##########################################oo.",
".oo############################################@@@@@@@@@########o#########@@@@@@@@@#########################@@@@@@@@@@@######oo.",
".oo######@@@@@@@@@##############################################o###########################################@@@@@@@@@@@######oo.",
".oo######@@@@@@@@@##############################################o############################################################oo.",
".oo#############################################################o############################################################oo.",
".oooooooooooooooooooooooooooooooooooooooooooooooooooooooooooooooooooooooooooooooooooooooooooooooooooooooooooooooooooooooooooooo.",
".ooOOOOOOOOOOXXXX----------------------------------------------------------------------------------------------XXXXOOOOOOOOOOoo.",
".oo%%%%%%%%%OOOOOXXXX--------------------------------------------------------------------------------------XXXXOOOOO%%%%%%%%%oo.",
".oo%%%%%%%%%%%%%OOOOOXXXX------------------------------------------------------------------------------XXXXOOOOO%%%%%%%%%%%%%oo.",
".oo%%%%%%%%%%%%%%%%%OOOOOX----------------------------------------------------------------------------XOOOOO%%%%%%%%%%%%%%%%%oo.",
".oo%%%%%%%%%%%%%%%%%%%%%OXXXXX--------------------------------------------------------------------XXXXXO%%%%%%%%%%%%%%%%%%%%%oo.",
".oo%%%%%%%%%%%%%%%%%%%%%OOOOOOXXXX------------------------------------------------------------XXXXOOOOOO%%%%%%%%%%%%%%%%%%%%%oo.",
".oo%%%%%%%%%%%%%%%%%%%%%%%%%%OOOOOXXXXX--------------------------------------------------XXXXXOOOOO%%%%%%%%%%%%%%%%%%%%%%%%%%oo.",
".oo%%%%%%%%%%%%%%%%%%%%%%%%%%%%%%OOOOOOXXXX------------------------------------------XXXXOOOOOO%%%%%%%%%%%%%%%%%%%%%%%%%%%%%%oo.",
".oo%%%%%%%%%%%%%%%%%%%%%%%%%%%%%%%%%%%OOOOOXXXX----------------------------------XXXXOOOOO%%%%%%%%%%%%%%%%%%%%%%%%%%%%%%%%%%%oo.",
".oo%%%%%%%%%%%%%%%%%%%%%%%%%%%%%%%%%%%%%%%OOOOOXXXX--------------------------XXXXOOOOO%%%%%%%%%%%%%%%%%%%%%%%%%%%%%%%%%%%%%%%oo.",
".oo%%%%%%%%%%%%%%%%%%%%%%%%%%%%%%%%%%%%%%%%%%%OOOOOXXXX------------------XXXXOOOOO%%%%%%%%%%%%%%%%%%%%%%%%%%%%%%%%%%%%%%%%%%%oo.",
".oo%%%%%%%%%%%%%%%%%%%%%%%%%%%%%%%%%%%%%%%%%%%%%%%OOOOOXXXX----------XXXXOOOOO%%%%%%%%%%%%%%%%%%%%%%%%%%%%%%%%%%%%%%%%%%%%%%%oo.",
".oo%%%%%%%%%%%%%%%%%%%%%%%%%%%%%%%%%%%%%%%%%%%%%%%%%%%OOOOOXXXX--XXXXOOOOO%%%%%%%%%%%%%%%%%%%%%%%%%%%%%%%%%%%%%%%%%%%%%%%%%%%oo.",
".oo%%%%%%%%%%%%%%%%%%%%%%%%%%%%%%%%%%%%%%%%%%%%%%%%%%%%%%%%++##--##++%%%%%%%%%%%%%%%%%%%%%%%%%%%%%%%%%%%%%%%%%%%%%%%%%%%%%%%%oo.",
".oo%%%%%%%%%%%%%%%%%%%%%%%%%%%%%%%%%%%%%%%%%%%%%%%%%%%%%%%%++##--##++%%%%%%%%%%%%%%%%%%%%%%%%%%%%%%%%%%%%%%%%%%%%%%%%%%%%%%%%oo.",
".oo%%%%%%%%%%%%%%%%%%%%%%%%%%%%%%%%%%%%%%%%%%%%%%%%%%%%%%%%++##--##++%%%%%%%%%%%%%%%%%%%%%%%%%%%%%%%%%%%%%%%%%%%%%%%%%%%%%%%%oo.",
".oo%%%%%%%%%%%%%%%%%%%%%%%%%%%%%%%%%%%%%%%%%%%%%%%%%%%%%%%%++##--##++%%%%%%%%%%%%%%%%%%%%%%%%%%%%%%%%%%%%%%%%%%%%%%%%%%%%%%%%oo.",
".oo%%%%%%%%%%%%%%%%%%%%%%%%%%%%%%%%%%%%%%%%%%%%%%%%%%%%%%%%++##--##++%%%%%%%%%%%%%%%%%%%%%%%%%%%%%%%%%%%%%%%%%%%%%%%%%%%%%%%%oo.",
".oo%%%%%%%%%%%%%%%%%%%%%%%%%%%%%%%%%%%%%%%%%%%%%%%%%%%%%%%%++##--##++%%%%%%%%%%%%%%%%%%%%%%%%%%%%%%%%%%%%%%%%%%%%%%%%%%%%%%%%oo.",
".oo%%%%%%%%%%%%%%%%%%%%%%%%%%%%%%%%%%%%%%%%%%%%%%%%%%%%%%%%++##--##++%%%%%%%%%%%%%%%%%%%%%%%%%%%%%%%%%%%%%%%%%%%%%%%%%%%%%%%%oo.",
".oo%%%%%%%%%%%%%%%%%%%%%%%%%%%%%%%%%%%%%%%%%%%%%%%%%%%%%%%%++##--##++%%%%%%%%%%%%%%%%%%%%%%%%%%%%%%%%%%%%%%%%%%%%%%%%%%%%%%%%oo.",
".oo%%%%%%%%%%%%%%%%%%%%%%%%%%%%%%%%%%%$$$$$$$%%%%%%%%%%%%%%++##--##++%%%%%%%%%%%%%%$$$$$$$%%%%%%%%%%%%%%%%%%%%%%%%%%%%%%%%%%%oo.",
".oo%%%%%%%%%%%%%%%%%%%%%%%%%%%%%%%%%$$$$$$$$$%%%%%%%%%%%%%%++##--##++%%%%%%%%%%%%%%$$$$$$$$$%%%%%%%%%%%%%%%%%%%%%%%%%%%%%%%%%oo.",
".oo%%%%%%%%%%%%%%%%%%%%%%%%%%%%%%%%%$$$%%%%%%%%%%%%%%%%%%%%++##--##++%%%%%%%%%%%%%%%%%%%%$$$%%%%%%%%%%%%%%%%%%%%%%%%%%%%%%%%%oo.",
".oo%%%%%%%%%%%%%%%%%%%%%%%%%%%%%%%%%%%%%%%%%%%%%%%%%%%%%%%%++##--##++%%%%%%%%%%%%%%%%%%%%%%%%%%%%%%%%%%%%%%%%%%%%%%%%%%%%%%%%oo.",
".oo%%%%%%%%%%%%%%%%%%%%%%%%%%%%%%%%%%%%%%%%%%%%%%%%%%%%%%%%++##--##++%%%%%%%%%%%%%%%%%%%%%%%%%%%%%%%%%%%%%%%%%%%%%%%%%%%%%%%%oo.",
".oo%%%%%%%%%%%%%%%%%%%%%%%%%%%%%%%%%%%%%%%%%%%%%%%%%%%%%%%%++##--##++%%%%%%%%%%%%%%%%%%%%%%%%%%%%%%%%%%%%%%%%%%%%%%%%%%%%%%%%oo.",
".oo%%%%%%%%%%%%%%%%%%%%%%%%%%%%%%%%%%%%%%%%%%%%%%%%%%%%%%%%++##--##++%%%%%%%%%%%%%%%%%%%%%%%%%%%%%%%%%%%%%%%%%%%%%%%%%%%%%%%%oo.",
".oo%%%%%%%%%%%$$$$$$%%%%%%%%%%%%%%%%%%%%%%%%%%%%%%%%%%%%%%%++##--##++%%%%%%%%%%%%%%%%%%%%%%%%%%%%%%%%%%%%%%%$$$$$$%%%%%%%%%%%oo.",
".oo%%%%%%%$$$$$$$$$$%%%%%%%%%%%%%%%%%%%%%%%%%%%%%%%%%%%%%%%++##--##++%%%%%%%%%%%%%%%%%%%%%%%%%%%%%%%%%%%%%%%$$$$$$$$$$%%%%%%%oo.",
".oo%%%%%$$$$$$$$%%%%%%%%%%%%%%%%%%%%%%%%%%%%%%%%%%%%%%%%%%%++##--##++%%%%%%%%%%%%%%%%%%%%%%%%%%%%%%%%%%%%%%%%%%%$$$$$$$$%%%%%oo.",
".oo%%%%%$$$%%%%%%%%%%%%%%%%%%%%%%%%%%%%%%%%%%%%%%%%%%%%%%%%++##--##++%%%%%%%%%%%%%%%%%%%%%%%%%%%%%%%%%%%%%%%%%%%%%%%%$$$%%%%%oo.",
".oo%%%%%$$%%%%%%%%%%%%%%%%%%%%%%%%%%%%%%%%%%%%%%%%%%%%%%%%%++##--##++%%%%%%%%%%%%%%%%%%%%%%%%%%%%%%%%%%%%%%%%%%%%%%%%%$$%%%%%oo.",
".oo%%%%%%%%%%%%%%%%%%%%%%%%%%%%%%%%%%%%%%%%%%%%%%%%%%%%%%%%++##--##++%%%%%%%%%%%%%%%%%%%%%%%%%%%%%%%%%%%%%%%%%%%%%%%%%%%%%%%%oo.",
".oo%%%%%%%%%%%%%%%%%%%%%%%%%%%%%%%%%%%%%%%%%%%%%%%%%%%%%%%%++##--##++%%%%%%%%%%%%%%%%%%%%%%%%%%%%%%%%%%%%%%%%%%%%%%%%%%%%%%%%oo.",
".oo%%%%%%%%%%%%%%%%%%%%%%%%%%%%%%%%%%%%%%%%%%%%%%%%%%%%%%%%++##--##++%%%%%%%%%%%%%%%%%%%%%%%%%%%%%%%%%%%%%%%%%%%%%%%%%%%%%%%%oo.",
".oo%%%%%%%%%%%%%%%%%%%%%%%%%%%%%%%%%%%%%%%%%%%%%%%%%%%%%%%%++##--##++%%%%%%%%%%%%%%%%%%%%%%%%%%%%%%%%%%%%%%%%%%%%%%%%%%%%%%%%oo.",
".oo%%%%%%%%%%%%%%%%%%%%%%%%%%%%%%%%%%%%%%%%%%%%%%%%%%%%%%%%++##--##++%%%%%%%%%%%%%%%%%%%%%%%%%%%%%%%%%%%%%%%%%%%%%%%%%%%%%%%%oo.",
".oo%%%%%%%%%%%%%%%%%%%%%%%%%%%%%%%%%%%%%%%%%%%%%%%%%%%%%%%%++##--##++%%%%%%%%%%%%%%%%%%%%%%%%%%%%%%%%%%%%%%%%%%%%%%%%%%%%%%%%oo.",
".oo%%%%%%%%%%%%%%%%%%%%%%%%%%%%%%%%%%%%%%%%%%%%%%%%%%%%%%%%++##--##++%%%%%%%%%%%%%%%%%%%%%%%%%%%%%%%%%%%%%%%%%%%%%%%%%%%%%%%%oo.",
".oo%%%%%%%%%%%%%%%%%%%%%%%%%%%%%%%%%%%%%%%%%%%%%%%%%%%%%%%%++##--##++%%%%%%%%%%%%%%%%%%%%%%%%%%%%%%%%%%%%%%%%%%%%%%%%%%%%%%%%oo.",
".oo%%%%%%%%%%%%%%%%%%%%%%%%%%%%%%%%%%%%%%%%%%%%%%%%%%%%%%%%++##--##++%%%%%%%%%%%%%%%%%%%%%%%%%%%%%%%%%%%%%%%%%%%%%%%%%%%%%%%%oo.",
".oo%%%%%%%%%%%%%%%%%%%%%%%%%%%%%%%%%%%%%%%%%%%%%%%%%%%%%%%%++##--##++%%%%%%%%%%%%%%%%%%%%%%%%%%%%%%%%%%%%%%%%%%%%%%%%%%%%%%%%oo.",
".oo%%%%%%%%%%%%%%%%%%%%%%%%%%%%%%%%%%%%%%%%%%%%%%%%%%%%%%%%++##--##++%%%%%%%%%%%%%%%%%%%%%%%%%%%%%%%%%%%%%%%%%%%%%%%%%%%%%%%%oo.",
".oo%%%%%%%%%%%%%%%%%%%%%%%%%%%%%%%%%%%%%$$$%%%%%%%%%%%%%%%%++##--##++%%%%%%%%%%%%%%%%$$$%%%%%%%%%%%%%%%%%%%%%%%%%%%%%%%%%%%%%oo.",
".oo%%%%%%%%%%%%%%%%%%%%%%%%%%%%%%%%%%$$$$$$%%%%%%%%%%%%%%%%++##--##++%%%%%%%%%%%%%%%%$$$$$$%%%%%%%%%%%%%%%%%%%%%%%%%%%%%%%%%%oo.",
".oo%%%%%%%%%%%%%%%%%%%%%%%%%%%%$$$$$$$$$$%%%%%%%%%%%%%%%%%%++##--##++%%%%%%%%%%%%%%%%%%$$$$$$$$$$%%%%%%%%%%%%%%%%%%%%%%%%%%%%oo.",
".oo%%%%%%%%%%%%%%%%%%%%%%%%%%%%$$$$$$$%%%%%%%%%%%%%%%%%%%%%++##--##++%%%%%%%%%%%%%%%%%%%%%$$$$$$$%%%%%%%%%%%%%%%%%%%%%%%%%%%%oo.",
".oo%%%%%%%%%%%%%%%%%%%%%%%%%%%%%%%%%%%%%%%%%%%%%%%%%%%%%%%%++##--##++%%%%%%%%%%%%%%%%%%%%%%%%%%%%%%%%%%%%%%%%%%%%%%%%%%%%%%%%oo.",
".oo%%%%%%%%%%%%%%%%%%%%%%%%%%%%%%%%%%%%%%%%%%%%%%%%%%%%%%%%++##--##++%%%%%%%%%%%%%%%%%%%%%%%%%%%%%%%%%%%%%%%%%%%%%%%%%%%%%%%%oo.",
".oo%%%%%%%%%%%%%%%%%%%%%%%%%%%%%%%%%%%%%%%%%%%%%%%%%%%%%%%%++##--##++%%%%%%%%%%%%%%%%%%%%%%%%%%%%%%%%%%%%%%%%%%%%%%%%%%%%%%%%oo.",
".oo%%%%%%%%%%%%%%%%%%%%%%%%%%%%%%%%%%%%%%%%%%%%%%%%%%%%%%%%++##--##++%%%%%%%%%%%%%%%%%%%%%%%%%%%%%%%%%%%%%%%%%%%%%%%%%%%%%%%%oo.",
".oo%%%%%%%%%%%%%%%%%%%%%%%%%%%%%%%%%%%%%%%%%===%%%%%%%%%%%%++##--##++%%%%%%%%%%%%===%%%%%%%%%%%%%%%%%%%%%%%%%%%%%%%%%%%%%%%%%oo.",
".oo%%%%%%%%%%%%%%%%%%%%%%%%%%%%%%%%%%%%%%%%=***=%%%%%%%%%%%++##--##++%%%%%%%%%%%=***=%%%%%%%%%%%%%%%%%%%%%%%%%%%%%%%%%%%%%%%%oo.",
".oo%%%%%%%%%%%%%%%%%%%%%%%%%%%%%%%%%%%%%%%=**&*==%%%%%%%%%%++##--##++%%%%%%%%%%==*&**=%%%%%%%%%%%%%%%%%%%%%%%%%%%%%%%%%%%%%%%oo.",
".oo%%%%%%%%%%%%%%%%%%%%%%%%%%%%%%%%%%%%%%%=*&&&**%%%%%%%%%%++##--##++%%%%%%%%%%**&&&*=%%%%%%%%%%%%%%%%%%%%%%%%%%%%%%%%%%%%%%%oo.",
".oo%%%%%%%%%%%%%%%%%%%%%%%%%%%%%%%%%%%%*****&&&&*%%%%%%%%%%++##--##++%%%%%%%%%%*&&&&*****%%%%%%%%%%%%%%%%%%%%%%%%%%%%%%%%%%%%oo.",
".oo%%%%%%%%%%%%%%%%%%%%%%%%%%%%%%%%%***&&&&&&&&**%%%%%%%%%%++##--##++%%%%%%%%%%**&&&&&&&&***%%%%%%%%%%%%%%%%%%%%%%%%%%%%%%%%%oo.",
".oo%%%%%%%%%%%%%%%%%%%%%%%%%%%%%%%***&&&&****&*==%%%%%%%%%%++##--##++%%%%%%%%%%==*&****&&&&***%%%%%%%%%%%%%%%%%%%%%%%%%%%%%%%oo.",
".oo%%%%%%%%%%%%%%%%%%%%%%%%%%%%%**&&&&&**oo=***=o%%%%%%%%%%++##--##++%%%%%%%%%%o=***=oo**&&&&&**%%%%%%%%%%%%%%%%%%%%%%%%%%%%%oo.",
".oo%%%%%%%%%%%%%%%%%%%%%%%%%%%%*&&&&****oo%o===oo%%%%%%%%%%++##--##++%%%%%%%%%%oo===o%oo****&&&&*%%%%%%%%%%%%%%%%%%%%%%%%%%%%oo.",
".oo%%%%%%%%%%%%%%%%%%%%%%%%%%%*&&***ooooo%%ooooo%%%%%%%%%%%++##--##++%%%%%%%%%%%ooooo%%ooooo***&&*%%%%%%%%%%%%%%%%%%%%%%%%%%%oo.",
".oo%%%%%%%%%%%%%%%%%%%%%%%%%%%*&**ooo%%%%%%%%%%%%%%%%%%%%%%++##--##++%%%%%%%%%%%%%%%%%%%%%%ooo**&*%%%%%%%%%%%%%%%%%%%%%%%%%%%oo.",
".oo%%%%%%%%%%%%%%%%%%%%%%%%%%%**ooo%%%%%%%%%%%%%%%%%%%%%%%%++##--##++%%%%%%%%%%%%%%%%%%%%%%%%ooo**%%%%%%%%%%%%%%%%%%%%%%%%%%%oo.",
".oo%%%%%%%%%%%%%%%%%%%%%%%%%%%ooo%%%%%%%%%%%%%%%%%%%%%%%%%%++##--##++%%%%%%%%%%%%%%%%%%%%%%%%%%ooo%%%%%%%%%%%%%%%%%%%%%%%%%%%oo.",
".oo%%%%%%%%%%%%%%%%%%%%%%%%%%%%%%%%%%%%%%%%%%%%%%%%%%%%%%%%++##--##++%%%%%%%%%%%%%%%%%%%%%%%%%%%%%%%%%%%%%%%%%%%%%%%%%%%%%%%%oo.",
".oo%%%%%%%%%%%%%%%%%%%%%%%%%%%%%%%%%%%%%%%%%%%%%%%%%%%%%%%%++##--##++%%%%%%%%%%%%%%%%%%%%%%%%%%%%%%%%%%%%%%%%%%%%%%%%%%%%%%%%oo.",
".oo%%%%%%%%%%%%%%%%%%%%%%%%%%%%%%%%%%%%%%%%%%%%%%%%%%%%%%%%++##--##++%%%%%%%%%%%%%%%%%%%%%%%%%%%%%%%%%%%%%%%%%%%%%%%%%%%%%%%%oo.",
".oo%%%%%%%%%%%%%%%%%%%%%%%%%%%%%%%%%%%%%%%%%%%%%%%%%%%%%%%%++##--##++%%%%%%%%%%%%%%%%%%%%%%%%%%%%%%%%%%%%%%%%%%%%%%%%%%%%%%%%oo.",
".oo%%%%%%%%%%%%%%%%%%%%%%%%%%%%%%%%%%%%%%%%%%%%%%%%%%%%%%%%++##--##++%%%%%%%%%%%%%%%%%%%%%%%%%%%%%%%%%%%%%%%%%%%%%%%%%%%%%%%%oo.",
".oo%%%%%%%%%%%%%%%%%%%%%%%%%%%%%%%%%%%%%%%%%%%%%%%%%%%%%%%%++##--##++%%%%%%%%%%%%%%%%%%%%%%%%%%%%%%%%%%%%%%%%%%%%%%%%%%%%%%%%oo.",
".oo%%%%%%%%%%%%%%%%%%%%%%%%%%%%%%%%%%%%%%%%%%%%%%%%%%%%%%%%++##--##++%%%%%%%%%%%%%%%%%%%%%%%%%%%%%%%%%%%%%%%%%%%%%%%%%%%%%%%%oo.",
".oo%%%%%%%%%%%%%%%%%%%%%%%%%%%%%%%%%%%%%%%%%%%%%%%%%%%%%%%%++##--##++%%%%%%%%%%%%%%%%%%%%%%%%%%%%%%%%%%%%%%%%%%%%%%%%%%%%%%%%oo.",
".oo%%%%%%%%%%%%%%%%%%%%%%%%%%%%%%%%%%%%%%%%%%%%%%%%%%%%%%%%++##--##++%%%%%%%%%%%%%%%%%%%%%%%%%%%%%%%%%%%%%%%%%%%%%%%%%%%%%%%%oo.",
".oo%%%%%%%%%%%%%%$$$%%%%%%%%%%%%%%%%%%%%%%%%%%%%%%%%%%%%%%%++##--##++%%%%%%%%%%%%%%%%%%%%%%%%%%%%%%%%%%%%%%%$$$%%%%%%%%%%%%%%oo.",
".oo%%%%%%%%%%$$$$$$$%%%%%%%%%%%%%%%%%%%%%%%%%%%%%%%%%%%%%%%++##--##++%%%%%%%%%%%%%%%%%%%%%%%%%%%%%%%%%%%%%%%$$$$$$$%%%%%%%%%%oo.",
".oo%%%%%%%%%$$$$$$$%%%%%%%%%%%%%%%%%%%%%%%%%%%%%%%%%%%%%%%%++##--##++%%%%%%%%%%%%%%%%%%%%%%%%%%%%%%%%%%%%%%%%$$$$$$$%%%%%%%%%oo.",
".oo%%%%%%%$$$$%%%%%%%%%%%%%%%%%%%%%%%%%%%%%%%%%%%%%%%%%%%%%++##--##++%%%%%%%%%%%%%%%%%%%%%%%%%%%%%%%%%%%%%%%%%%%%%$$$$%%%%%%%oo.",
".oo%%%%%$$$$$%%%%%%%%%%%%%%%%%%%%%%%%%%%%%%%%%%%%%%%%%%%%%%++##--##++%%%%%%%%%%%%%%%%%%%%%%%%%%%%%%%%%%%%%%%%%%%%%%$$$$$%%%%%oo.",
".oo%%%%%$$$%%%%%%%%%%%%%%%%%%%%%%%%%%%%%%$$$$$%%%%%%%%%%%%%++##--##++%%%%%%%%%%%%%$$$$$%%%%%%%%%%%%%%%%%%%%%%%%%%%%%%$$$%%%%%oo.",
".oo%%%%%%%%%%%%%%%%%%%%%%%%%%%%%%%%%%%%$$$$$$$%%%%%%%%%%%%%++##--##++%%%%%%%%%%%%%$$$$$$$%%%%%%%%%%%%%%%%%%%%%%%%%%%%%%%%%%%%oo.",
".oo%%%%%%%%%%%%%%%%%%%%%%%%%%%%%%%%%$$$$$$$%%%%%%%%%%%%%%%%++##--##++%%%%%%%%%%%%%%%%$$$$$$$%%%%%%%%%%%%%%%%%%%%%%%%%%%%%%%%%oo.",
".oo%%%%%%%%%%%%%%%%%%%%%%%%%%%%%%%%%$$$$%%%%%%%%%%%%%%%%%%%++##--##++%%%%%%%%%%%%%%%%%%%$$$$%%%%%%%%%%%%%%%%%%%%%%%%%%%%%%%%%oo.",
".oo%%%%%%%%%%%%%%%%%%%%%%%%%%%%%%%%%%%%%%%%%%%%%%%%%%%%%%%%++##--##++%%%%%%%%%%%%%%%%%%%%%%%%%%%%%%%%%%%%%%%%%%%%%%%%%%%%%%%%oo.",
".oo%%%%%%%%%%%%%%%%%%%%%%%%%%%%%%%%%%%%%%%%%%%%%%%%%%%%%%%%++##--##++%%%%%%%%%%%%%%%%%%%%%%%%%%%%%%%%%%%%%%%%%%%%%%%%%%%%%%%%oo.",
".oo%%%%%%%%%%%%%%%%%%%%%%%%%%%%%%%%%%%%%%%%%%%%%%%%%%%%%%%%++##--##++%%%%%%%%%%%%%%%%%%%%%%%%%%%%%%%%%%%%%%%%%%%%%%%%%%%%%%%%oo.",
".oo%%%%%%%%%%%%%%%%%%%%%%%%%%%%%%%%%%%%%%%%%%%%%%%%%%%%%%%%++##--##++%%%%%%%%%%%%%%%%%%%%%%%%%%%%%%%%%%%%%%%%%%%%%%%%%%%%%%%%oo.",
".oo%%%%%%%%%%%%%%%%%%%%%%%%%%%%%%%%%%%%%%%%%%%%%%%%%%%%%%%%++##--##++%%%%%%%%%%%%%%%%%%%%%%%%%%%%%%%%%%%%%%%%%%%%%%%%%%%%%%%%oo.",
".oo%%%%%%%%%%%%%%%%%%%%%%%%%%%%%%%%%%%%%%%%%%%%%%%%%%%%%%%%++##--##++%%%%%%%%%%%%%%%%%%%%%%%%%%%%%%%%%%%%%%%%%%%%%%%%%%%%%%%%oo.",
".oo%%%%%%%%%%%%%%%%%%%%%%%%%%%%%%%%%%%%%%%%%%%%%%%%%%%%%%%%++##--##++%%%%%%%%%%%%%%%%%%%%%%%%%%%%%%%%%%%%%%%%%%%%%%%%%%%%%%%%oo.",
".oo%%%%%%%%%%%%%%%%%%%%%%%%%%%%%%%%%%%%%%%%%%%%%%%%%%%%%%%%++##--##++%%%%%%%%%%%%%%%%%%%%%%%%%%%%%%%%%%%%%%%%%%%%%%%%%%%%%%%%oo.",
".oo%%%%%%%%%%%%%%%%%%%%%%%%%%%%%%%%%%%%%%%%%%%%%%%%%%%%%%%%++##--##++%%%%%%%%%%%%%%%%%%%%%%%%%%%%%%%%%%%%%%%%%%%%%%%%%%%%%%%%oo.",
".oo%%%%%%%%%%%%%%%%%%%%%%%%%%%%%%%%%%%%%%%%%%%%%%%%%%%%%%%%++##--##++%%%%%%%%%%%%%%%%%%%%%%%%%%%%%%%%%%%%%%%%%%%%%%%%%%%%%%%%oo.",
".oo%%%%%%%%%%%%%%%%%%%%%%%%%%%%%%%%%%%%%%%%%%%%%%%%%%%%%%%%++##--##++%%%%%%%%%%%%%%%%%%%%%%%%%%%%%%%%%%%%%%%%%%%%%%%%%%%%%%%%oo.",
".oo%%%%%%%%%%%%%%%%%%%%%%%%%%%%%%%%%%%%%%%%%%%%%%%%%%%%%%%%++##--##++%%%%%%%%%%%%%%%%%%%%%%%%%%%%%%%%%%%%%%%%%%%%%%%%%%%%%%%%oo.",
".oo%%%%%%%%%%%%%%%%%%%%%%%%%%%%%%%%%%%%%%%%%%%%%%%%%%%%%%%%++##--##++%%%%%%%%%%%%%%%%%%%%%%%%%%%%%%%%%%%%%%%%%%%%%%%%%%%%%%%%oo.",
".oo%%%%%%%%%%%%%%%%%%%%%%%%%%%%%%%%%%%%%%%%%%%%%%%%%%%%%%%%++##--##++%%%%%%%%%%%%%%%%%%%%%%%%%%%%%%%%%%%%%%%%%%%%%%%%%%%%%%%%oo.",
".oo%%%%%%%%%%%%%%%%%%%%%%%%%%%%%%%%%%%%%%%%%%%%%%%%%%%%%%%%++##--##++%%%%%%%%%%%%%%%%%%%%%%%%%%%%%%%%%%%%%%%%%%%%%%%%%%%%%%%%oo.",
".oo%%%%%%%%%%%%%%%%%%%%%%%%%%%%%%%%%%%%%%%%%%%%%%%%%%%%%%%%++##--##++%%%%%%%%%%%%%%%%%%%%%%%%%%%%%%%%%%%%%%%%%%%%%%%%%%%%%%%%oo.",
".oo%%%%%%%%%%%%%%%%%%%%%%%%%%%%%%%%%%%%%%%%%%%%%%%%%%%%%%%%++##--##++%%%%%%%%%%%%%%%%%%%%%%%%%%%%%%%%%%%%%%%%%%%%%%%%%%%%%%%%oo.",
".oo%%%%%%%%%%%%%%%%%%%%%%%%%%%%%%%%%%%%%%%%%%%%%%%%%%%%%%%%++##--##++%%%%%%%%%%%%%%%%%%%%%%%%%%%%%%%%%%%%%%%%%%%%%%%%%%%%%%%%oo.",
".oo%%%%%%%%%%%%%%%%%%%%%%%%%%%%%%%%%%%%%%%$$$$%%%%%%%%%%%%%++##--##++%%%%%%%%%%%%%$$$$%%%%%%%%%%%%%%%%%%%%%%%%%%%%%%%%%%%%%%%oo.",
".oo%%%%%%%%%%%%%$$$$%%%%%%%%%%%%%%%%%%%$$$$$$$%%%%%%%%%%%%%++##--##++%%%%%%%%%%%%%$$$$$$$%%%%%%%%%%%%%%%%%%%$$$$%%%%%%%%%%%%%oo.",
".oo%%%%%%%%%%$$$$$$$%%%%%%%%%%%%%%%%$$$$$$$%%%%%%%%%%%%%%%%++##--##++%%%%%%%%%%%%%%%%$$$$$$$%%%%%%%%%%%%%%%%$$$$$$$%%%%%%%%%%oo.",
".oo%%%%%%%$$$$$$$$%%%%%%%%%%%%%%%%%$$$$$%%%%%%%%%%%%%%%%%%%++##--##++%%%%%%%%%%%%%%%%%%%$$$$$%%%%%%%%%%%%%%%%%$$$$$$$$%%%%%%%oo.",
".oo%%%%%$$$$$$$%%%%%%%%%%%%%%%%%%%%$$$%%%%%%%%%%%%%%%%%%%%%++##--##++%%%%%%%%%%%%%%%%%%%%%$$$%%%%%%%%%%%%%%%%%%%%$$$$$$$%%%%%oo.",
".oo%%%%%$$$%%%%%%%%%%%%%%%%%%%%%%%%%%%%%%%%%%%%%%%%%%%OOOOOXXXX--XXXXOOOOO%%%%%%%%%%%%%%%%%%%%%%%%%%%%%%%%%%%%%%%%%%%$$$%%%%%oo.",
".oo%%%%%$$%%%%%%%%%%%%%%%%%%%%%%%%%%%%%%%%%%%%%%%OOOOOOXXXX----------XXXXOOOOOO%%%%%%%%%%%%%%%%%%%%%%%%%%%%%%%%%%%%%%%$$%%%%%oo.",
".oo%%%%%%%%%%%%%%%%%%%%%%%%%%%%%%%%%%%%%%%%%%%OOOOXXXXX------------------XXXXXOOOO%%%%%%%%%%%%%%%%%%%%%%%%%%%%%%%%%%%%%%%%%%%oo.",
".oo%%%%%%%%%%%%%%%%%%%%%%%%%%%%%%%%%%%%%%%OOOOOXXXX--------------------------XXXXOOOOO%%%%%%%%%%%%%%%%%%%%%%%%%%%%%%%%%%%%%%%oo.",
".oo%%%%%%%%%%%%%%%%%%%%%%%%%%%%%%%%%%%OOOOOXXXX----------------------------------XXXXOOOOO%%%%%%%%%%%%%%%%%%%%%%%%%%%%%%%%%%%oo.",
".oo%%%%%%%%%%%%%%%%%%%%%%%%%%%%%%%OOOOOXXXX------------------------------------------XXXXOOOOO%%%%%%%%%%%%%%%%%%%%%%%%%%%%%%%oo.",
".oo%%%%%%%%%%%%%%%%%%%%%%%%%%%OOOOOXXXX--------------------------------------------------XXXXOOOOO%%%%%%%%%%%%%%%%%%%%%%%%%%%oo.",
".oo%%%%%%%%%%%%%%%%%%%%%%%OOOOOXXXX----------------------------------------------------------XXXXOOOOO%%%%%%%%%%%%%%%%%%%%%%%oo.",
".oo%%%%%%%%%%%%%%%%%%OOOOOOXXXX------------------------------------------------------------------XXXXOOOOOO%%%%%%%%%%%%%%%%%%oo.",
".oo%%%%%%%%%%%%%%%OOOOXXXXX--------------------------------------------------------------------------XXXXXOOOO%%%%%%%%%%%%%%%oo.",
".oo%%%%%%%%%%%OOOOOXXXX----------------------------------------------------------------------------------XXXXOOOOO%%%%%%%%%%%oo.",
".oo%%%%%%%OOOOOXXXX------------------------------------------------------------------------------------------XXXXOOOOO%%%%%%%oo.",
".ooOOOOOOOOXXXX--------------------------------------------------------------------------------------------------XXXXOOOOOOOOoo.",
"..XX....ooooX XXoXX...XooXXXooooXX....XXXooooooooooXXX......XXXXXXXXXX...ooooXXXX......XXXXoooXXX.......  XXooXX...XXoooXX......"
};
