/* XPM */
static char *made_wall_e[] = {
/* columns rows colors chars-per-pixel */
"128 128 15 1 ",
"  c black",
". c #9B0000",
"X c #0A008C",
"o c #1089AE",
"O c #15ABD8",
"+ c #18BFF0",
"@ c #55CFF3",
"# c #66D3F4",
"$ c #8EDEF6",
"% c #C1C1C1",
"& c gray76",
"* c #CDCDCD",
"= c #D8D8D8",
"- c #E4E4E4",
"; c #EFEFEF",
/* pixels */
"&&&&&&&&&&&&&&&&&&&&&&&&&&&&&&&&&&&&&&&&&&&&&&&&&&&&&&&&&&&&&&&&&&&&&&&&&&&&&&&&&&&&&&&&&&&&&&&&&&&&&&&&&&&&&&&&&&&&&&&&&&&&&===",
"&&&&&&&&&&&&&&&&&&&&&&&&&&&&&&&&&&&&&&&&&&&&&&&&&&&&&&&&&&&&&&&&&&&&&&&&&&&&&&&&&&&&&&&&&&&&&&&&&&&&&&&&&&&&&&&&&&&&&&&&&&&&&===",
"&&&&&&&&&&&&&&&&&&&&&&&&&&&&&&&&&&&&&&&&&&&&&&&&&&&&&&&&&&&&&&&&&&&&&&&&&&&&&&&&&&&&&&&&&&&&&&&&&&&&&&&&&&&&&&&&&&&&&&&&&&&&&===",
"&&&&&&&&&&&&&&&&&&&&&&&&&&&&&&&&&&&&&&&&&&&&&&&&&&&&&&&&&&&&&&&&&&&&&&&&&&&&&&&&&&&&&&&&&&&&&&&&&&&&&&&&&&&&&&&&&&&&&&&&&&&&&---",
"&&&&&&&&&&&&&&&&&&&&&&&&&&&&&&&&&&&&&&&&&&&&&&&&&&&&&&&&&&&&&&&&&&&&&&&&&&&&&&&&&&&&&&&&&&&&&&&&&&&&&&&&&&&&&&&&&&&&&&&&&&&&&---",
" ----------------------------------------------------------------------------------------------------------------------------   ",
" ----------------------------------------------------------------------------------------------------------------------------   ",
"================================================================================================================================",
"================================================================================================================================",
"================================================================================================================================",
"================================================================================================================================",
"================================================================================================================================",
"================================================================================================================================",
"================================================================================================================================",
"================================================================================================================================",
"================================================================================================================================",
"================================================================================================================================",
"================================================================================================================================",
"================================================================================================================================",
"================================================================================================================================",
"================================================================================================================================",
"================================================================================================================================",
"================================================================================================================================",
"================================================================================================================================",
"================================================================================================================================",
"================================================================================================================================",
"================================================================================================================================",
"================================================================================================================================",
"================================================================================================================================",
"================================================================================================================================",
"================================================================================================================================",
"==============================================================================================================*=================",
"===========================================================================================;;;;;;;;;;;;;; ;;;;*=================",
"===========================================================================================;;;;;;;;;;;;  ;;;;;*=================",
"===========================================================================================;;;;;;;;;;   ;;; ;;*=================",
"===========================================================================================;;;;;;;;;    ;; ;;;*=================",
"===========================================================================================;;;        ; ; ;;;;*=================",
"===============++++++++++++++++++&=========================================================;;; ;;;;  ;; ;;;;;;*=================",
"===============++;+++++++++++++++&=========================================================;;; ;;;  ;;; ; ; ;;*=================",
"===============+;;;+++++OO+++++++&=========================================================;;; ;;  ;;;; ;;;;;;*=================",
"===============++;++++++@OO++++++&=========================================================;;;       ;; ; ;;;;*=================",
"===============++++++++@$$OO+++++&=========================================================;;;;  ;;;  ; ;; ;;;*=================",
"===============+++++++@$$$@O++O++&=========================================================;;;  ;;;;;   ;;; ;;*=================",
"===============+++;++@$$$@+++OOO+&=========================================================;;; ;;;;;;;; ;;;;;;*=================",
"===============++@++@@$$@+++++O++&=========================================================;; ;;;;;;;;;;;;;;;;*=================",
"===============++++++@@@+++++++++&=========================================================********************=================",
"===============;;+++++@++++++++;;&==============================================================================================",
"===============;;;++++++++++++;;;&==============================================================================================",
"===============;;;;;;++++++;;;;;;&==============================================================================================",
"===============;;;;;;;;;;;;;;;;;;&==============================================================================================",
"===============;;;;;;;;;;;;;;;;;;&==============================================================================================",
"===============;;;;;;;;;;;;;;;;;;&==============================================================================================",
"===============;;;+++;;;;; ;;  ;;&==============================================================================================",
"===============;;+++;;;;; ;; ;; ;&==============================================================================================",
"===============;+++;;;;; ;;;;; ;;&==============================================================================================",
"===============;;;;;;;; ;;;;; ;;;&==============================================================================================",
"===============;;;;;;;    ;; ;; ;&==============================================================================================",
"===============;;;;;;;;;;; ;   ;;&==============================================================================================",
"===============;;;;oo;;;;; ;;;;;;&==============================================================================================",
"===============;;;;oo;;;;;;;;;;;;&==============================================================================================",
"===============;;;;;;;;;;;;;;++;;&==============================================================================================",
"===============;#;#;#;;;;;;;;++;;&==============================================================================================",
"===============;;;;;;;;;;;;;;;;;;&==============================================================================================",
"===============;#;#;#;;;;;;;;;;;;&==============================================================================================",
"===============&&&&&&&&&&&&&&&&&&&==============================================================================================",
"================================================================================================================================",
"================================================================================================================================",
"===========================================================================================;;;;;;;;;&===========================",
"===========================================================================================;&&&&&&&;&===========================",
"===========================================================================================;&&&;;&& &===========================",
"===========================================================================================;&&&&&&&;&===========================",
"===========================================================================================;&&&&&&&;&===========================",
"===========================================================================================;;;;;;;;;&===========================",
"===========================================================================================&&&&&&&&&&===========================",
"================================================================================================================================",
"===========================================================================================;;;;;;;;&============================",
"===========================================================================================;....XX;&============================",
"===========================================================================================;....XX;&============================",
"===========================================================================================;....;X;&============================",
"===========================================================================================;...;XX;&============================",
"===========================================================================================;XXXX;X;&============================",
"===========================================================================================;XXXXXX;&============================",
"===========================================================================================;;;;;;;;&============================",
"===========================================================================================&&&&&&&&&============================",
"================================================================================================================================",
"================================================================================================================================",
"================================================================================================================================",
"================================================================================================================================",
"================================================================================================================================",
"================================================================================================================================",
"================================================================================================================================",
"================================================================================================================================",
"================================================================================================================================",
"================================================================================================================================",
"================================================================================================================================",
"================================================================================================================================",
"================================================================================================================================",
"================================================================================================================================",
"================================================================================================================================",
"================================================================================================================================",
"================================================================================================================================",
"================================================================================================================================",
"================================================================================================================================",
"================================================================================================================================",
"================================================================================================================================",
"================================================================================================================================",
"================================================================================================================================",
"================================================================================================================================",
"================%%%%&&&%========================================================================================================",
"================%------&========================================================================================================",
"================%-&&==-&========================================================================================================",
"================%-&&==-&========================================================================================================",
"================%------%========================================================================================================",
"================%%%%%%%%========================================================================================================",
"================================================================================================================================",
"================================================================================================================================",
"================================================================================================================================",
"================================================================================================================================",
"    --------------------------------------------------------------------------------------------------------------------------- ",
"    --------------------------------------------------------------------------------------------------------------------------- ",
"----&&&&&&&&&&&&&&&&&&&&&&&&&&&&&&&&&&&&&&&&&&&&&&&&&&&&&&&&&&&&&&&&&&&&&&&&&&&&&&&&&&&&&&&&&&&&&&&&&&&&&&&&&&&&&&&&&&&&&&&&&&&&",
"----&&&&&&&&&&&&&&&&&&&&&&&&&&&&&&&&&&&&&&&&&&&&&&&&&&&&&&&&&&&&&&&&&&&&&&&&&&&&&&&&&&&&&&&&&&&&&&&&&&&&&&&&&&&&&&&&&&&&&&&&&&&&",
"----&&&&&&&&&&&&&&&&&&&&&&&&&&&&&&&&&&&&&&&&&&&&&&&&&&&&&&&&&&&&&&&&&&&&&&&&&&&&&&&&&&&&&&&&&&&&&&&&&&&&&&&&&&&&&&&&&&&&&&&&&&&&",
"====&&&&&&&&&&&&&&&&&&&&&&&&&&&&&&&&&&&&&&&&&&&&&&&&&&&&&&&&&&&&&&&&&&&&&&&&&&&&&&&&&&&&&&&&&&&&&&&&&&&&&&&&&&&&&&&&&&&&&&&&&&&&",
"====&&&&&&&&&&&&&&&&&&&&&&&&&&&&&&&&&&&&&&&&&&&&&&&&&&&&&&&&&&&&&&&&&&&&&&&&&&&&&&&&&&&&&&&&&&&&&&&&&&&&&&&&&&&&&&&&&&&&&&&&&&&&",
"====&&&&&&&&&&&&&&&&&&&&&&&&&&&&&&&&&&&&&&&&&&&&&&&&&&&&&&&&&&&&&&&&&&&&&&&&&&&&&&&&&&&&&&&&&&&&&&&&&&&&&&&&&&&&&&&&&&&&&&&&&&&&",
"====&&&&&&&&&&&&&&&&&&&&&&&&&&&&&&&&&&&&&&&&&&&&&&&&&&&&&&&&&&&&&&&&&&&&&&&&&&&&&&&&&&&&&&&&&&&&&&&&&&&&&&&&&&&&&&&&&&&&&&&&&&&&",
"====&&&&&&&&&&&&&&&&&&&&&&&&&&&&&&&&&&&&&&&&&&&&&&&&&&&&&&&&&&&&&&&&&&&&&&&&&&&&&&&&&&&&&&&&&&&&&&&&&&&&&&&&&&&&&&&&&&&&&&&&&&&&"
};
