/* XPM */
static char *made_wall_s[] = {
/* columns rows colors chars-per-pixel */
"128 128 21 1 ",
"  c black",
". c gray34",
"X c gray38",
"o c #6D6D6D",
"O c #717171",
"+ c gray48",
"@ c #7E7E7E",
"# c gray53",
"$ c gray55",
"% c #979797",
"& c gray61",
"* c #A0A0A0",
"= c gray65",
"- c gray66",
"; c #AEAEAE",
": c gray69",
"> c #B6B6B6",
", c gray76",
"< c gray82",
"1 c #D8D8D8",
"2 c #E4E4E4",
/* pixels */
"11111111111111111111111111111111111111111111111111111111111111111111111111111111111111111111111;,, ,, ,, ,, ,,;11111111111111111",
"11111111111111111111111111111111111111111111111111111111111111111111111111111111111111111111111;,, ,, ,, ,, ,,;11111111111111111",
"11111111111111111111111111111111111111111111111111111111111111111111111111111111111111111111111;,, ,, ,, ,, ,,;11111111111111111",
"11111111111111111111111111111111111111111111111111111111111111111111111111111111111111111111111;;;;;;;;;;;;;;;;11111111111111222",
"11111111111111111111111111111111111111111111111111111111111111111111111111111111111111111111111111111111111111111111111111111222",
" 2222222222222222222222222222222222222222222222222222222222222222222222222222222222222222222222222222222222222222222222222222   ",
" 2222222222222222222222222222222222222222222222222222222222222222222222222222222222222222222222222222222222222222222222222222   ",
"11111111111111111111111111111111111111111111111111111111111111111111111111111111111111111111111111111111111111111111111111111111",
"11111111111111111111111111111111111111111111111111111111111111111111111111111111111111111111111111111111111111111111111111111111",
"11111111111111111111111111111111111111111111111111111111111111111111111111111111111111111111111111111111111111111111111111111111",
"11111111111111111111111111111111111111111111111111111111111111111111111111111111111111111111111111111111111111111111111111111111",
"11111111111111111111111111111111111111111111111111111111111111111111111111111111111111111111111111111111111111111111111111111111",
"11111111111111111111111111111111111111111111111111111111111111111111111111111111111111111111111111111111111111111111111111111111",
"11111111111111111111111111111111111111111111111111111111111111111111111111111111111111111111111111111111111111111111111111111111",
"11111111111111111111111111111111111111111111111111111111111111111111111111111111111111111111111111111111111111111111111111111111",
"11111111111111111111111111111111111111111111111111111111111111111111111111111111111111111111111111111111111111111111111111111111",
"11111111111111111111111111111111111111111111111111111111111111111111111111111111111111111111111111111111111111111111111111111111",
"11111111111111111111111111111111111111111111111111111111111111111111111111111111111111111111111111111111111111111111111111111111",
"11111111111111111111111111111111111111111111111111111111111111111111111111111111111111111111111111111111111111111111111111111111",
"11111111111111111111111111111111111111111111111111111111111111111111111111111111111111111111111111111111111111111111111111111111",
"11111111111111111111111111111111111111111111111111111111111111111111111111111111111111111111111111111111111111111111111111111111",
"11111111111111111111111111111111111111111111111111111111111111111111111111111111111111111111111111111111111111111111111111111111",
"11111111111111111111111111111111111111111111111111111111111111111111111111111111111111111111111111111111111111111111111111111111",
"11111111111111111111111111111111111111111111111111111111111111111111111111111111111111111111111111111111111111111111111111111111",
"11111111111111111111111111111111111111111111111111111111111111111111111111111111111111111111111111111111111111111111111111111111",
"11111111111111111111111111111111111111111111111111111111111111111111111111111111111111111111111111111111111111111111111111111111",
"11111111111111111111111111111111111111111111111111111111111111111111111111111111111111111111111111111111111111111111111111111111",
"11111111111111111111111111111111111111111111111111111111111111111111111111111111111111111111111111111111111111111111111111111111",
"11111111111111111111111111111111111111111111111111111111111111111111111111111111111111111111111111111111111111111111111111111111",
"11111111111111111111111111111111111111111111111111111111111111111111111111111111111111111111111111111111111111111111111111111111",
"1111111111111111111111111111111111111111111111111111>>>>>>>>>>>>>>>>>>>>>>>>::11111111111111111111111111111111111111111111111111",
"1111111111111111111111111111111111111111111111111111>;;;;;;;;;;;;;;;;;;;;;;;-:11111111111111111111111111111111111111111111111111",
"1111111111111111111111111111111111111111111111111111>;@$$@$$@$$@$$@$$@$$@$$$-:11111111111111111111111111111111111111111111111111",
"1111111111111111111111111111111111111111111111111111>;$&&$&&$&&$&&$&&$&&$%%@-:11111111111111111111111111111111111111111111111111",
"1111111111111111111111111111111111111111111111111111>;@  @  @  @  @  @  o  O-:11111111111111111111111111111111111111111111111111",
"1111111111111111111111111111111111111111111111111111>;$&&$&&$&&$&&$&&$%%#%%#-:11111111111111111111111111111111111111111111111111",
"1111111111111111111111111111111111111111111111111111>;$&&$&&$&&$&&$&&$%%#%%$-:11111111111111111111111111111111111111111111111111",
"1111111111111111111111111111111111111111111111111111>;@  @  @  @  @  +  o  O-:11111111111111111111111111111111111111111111111111",
"1111111111111111111111111111111111111111111111111111>;$&&$&&$&&$&&$&%#%%#%%@-:11111111111111111111111111111111111111111111111111",
"1111111111111111111111111111111111111111111111111111>;$&&$&&$&&$&&$%%#%%#%%@-:11111111111111111111111111111111111111111111111111",
"1111111111111111111111111111111111111111111111111111>;@  @  @  @  +  +  O  @-:11111111111111111111111111111111111111111111111111",
"1111111111111111111111111111111111111111111111111111>;$&&$&&$&&$&%#%%#%%#%%@-:11111111111111111111111111111111111111111111111111",
"1111111111111111111111111111111111111111111111111111>;$&&$&&$&&#%%#%%#&%#%%$-:11111111111111111111111111111111111111111111111111",
"1111111111111111111111111111111111111111111111111111>;@  @  @  +  @  +  o  X=-11111111111111111111111111111111111111111111111111",
"1111111111111111111111111111111111111111111111111111>;$&&$&&$&%#%%#%%$%%#&%#=-11111111111111111111111111111111111111111111111111",
"1111111111111111111111111111111111111111111111111111>;$&&$&&#%%#%%#%&#%%$&%+=;11111111111111111111111111111111111111111111111111",
"1111111111111111111111111111111111111111111111111111>;@  @  +  +  +  o  O  .=-11111111111111111111111111111111111111111111111111",
"1111111111111111111111111111111111111111111111111111>;$&&$&%#%%#%&$&%#&&$%%@=;11111111111111111111111111111111111111111111111111",
"1111111111111111111111111111111111111111111111111111>;$&&$&%#%%#&&#%%#&&$%%@==<1111111111111111111111111111111111111111111111111",
"1111111111111111111111111111111111111111111111111111>;@  @  +  @  +  @  O  @==<1111111111111111111111111111111111111111111111111",
"1111111111111111111111111111111111111111111111111111>;$&&#%%#&&#%%#&&$&&$%%$&=<1111111111111111111111111111111111111111111111111",
"1111111111111111111111111111111111111111111111111111>;$&%#%%#%%#%%$&&$&&$%%$*=11111111111111111111111111111111111111111111111111",
"1111111111111111111111111111111111111111111111111111>;@  +  +  +  @  O  O  O*=11111111111111111111111111111111111111111111111111",
"1111111111111111111111111111111111111111111111111111>;$%%#%%#%%$&&$&&$&&$%%@*=11111111111111111111111111111111111111111111111111",
"1111111111111111111111111111111111111111111111111111>;#%%#%%#&&$&&#%%#%%$%%@*=11111111111111111111111111111111111111111111111111",
"1111111111111111111111111111111111111111111111111111>;+  o  o  o  o  o  o  O*=11111111111111111111111111111111111111111111111111",
"1111111111111111111111111111111111111111111111111111>;+++o++oooo+oo+O@O@OOOO*=11111111111111111111111111111111111111111111111111",
"1111111111111111111111111111111111111111111111111111>;-----------======**&***=11111111111111111111111111111111111111111111111111",
"1111111111111111111111111111111111111111111111111111>>:::::::::::::;-;;=======11111111111111111111111111111111111111111111111111",
"11111111111111111111111111111111111111111111111111111111111111111111111111111111111111111111111111111111111111111111111111111111",
"11111111111111111111111111111111111111111111111111111111111111111111111111111111111111111111111111111111111111111111111111111111",
"11111111111111111111111111111111111111111111111111111111111111111111111111111111111111111111111111111111111111111111111111111111",
"11111111111111111111111111111111111111111111111111111111111111111111111111111111111111111111111111111111111111111111111111111111",
"11111111111111111111111111111111111111111111111111111111111111111111111111111111111111111111111111111111111111111111111111111111",
"11111111111111111111111111111111111111111111111111111111111111111111111111111111111111111111111111111111111111111111111111111111",
"11111111111111111111111111111111111111111111111111111111111111111111111111111111111111111111111111111111111111111111111111111111",
"11111111111111111111111111111111111111111111111111111111111111111111111111111111111111111111111111111111111111111111111111111111",
"11111111111111111111111111111111111111111111111111111111111111111111111111111111111111111111111111111111111111111111111111111111",
"11111111111111111111111111111111111111111111111111111111111111111111111111111111111111111111111111111111111111111111111111111111",
"11111111111111111111111111111111111111111111111111111111111111111111111111111111111111111111111111111111111111111111111111111111",
"11111111111111111111111111111111111111111111111111111111111111111111111111111111111111111111111111111111111111111111111111111111",
"11111111111111111111111111111111111111111111111111111111111111111111111111111111111111111111111111111111111111111111111111111111",
"11111111111111111111111111111111111111111111111111111111111111111111111111111111111111111111111111111111111111111111111111111111",
"11111111111111111111111111111111111111111111111111111111111111111111111111111111111111111111111111111111111111111111111111111111",
"11111111111111111111111111111111111111111111111111111111111111111111111111111111111111111111111111111111111111111111111111111111",
"11111111111111111111111111111111111111111111111111111111111111111111111111111111111111111111111111111111111111111111111111111111",
"11111111111111111111111111111111111111111111111111111111111111111111111111111111111111111111111111111111111111111111111111111111",
"11111111111111111111111111111111111111111111111111111111111111111111111111111111111111111111111111111111111111111111111111111111",
"11111111111111111111111111111111111111111111111111111111111111111111111111111111111111111111111111111111111111111111111111111111",
"11111111111111111111111111111111111111111111111111111111111111111111111111111111111111111111111111111111111111111111111111111111",
"11111111111111111111111111111111111111111111111111111111111111111111111111111111111111111111111111111111111111111111111111111111",
"11111111111111111111111111111111111111111111111111111111111111111111111111111111111111111111111111111111111111111111111111111111",
"11111111111111111111111111111111111111111111111111111111111111111111111111111111111111111111111111111111111111111111111111111111",
"11111111111111111111111111111111111111111111111111111111111111111111111111111111111111111111111111111111111111111111111111111111",
"11111111111111111111111111111111111111111111111111111111111111111111111111111111111111111111111111111111111111111111111111111111",
"11111111111111111111111111111111111111111111111111111111111111111111111111111111111111111111111111111111111111111111111111111111",
"11111111111111111111111111111111111111111111111111111111111111111111111111111111111111111111111111111111111111111111111111111111",
"11111111111111111111111111111111111111111111111111111111111111111111111111111111111111111111111111111111111111111111111111111111",
"11111111111111111111111111111111111111111111111111111111111111111111111111111111111111111111111111111111111111111111111111111111",
"11111111111111111111111111111111111111111111111111111111111111111111111111111111111111111111111111111111111111111111111111111111",
"11111111111111111111111111111111111111111111111111111111111111111111111111111111111111111111111111111111111111111111111111111111",
"11111111111111111111111111111111111111111111111111111111111111111111111111111111111111111111111111111111111111111111111111111111",
"11111111111111111111111111111111111111111111111111111111111111111111111111111111111111111111111111111111111111111111111111111111",
"11111111111111111111111111111111111111111111111111111111111111111111111111111111111111111111111111111111111111111111111111111111",
"11111111111111111111111111111111111111111111111111111111111111111111111111111111111111111111111111111111111111111111111111111111",
"11111111111111111111111111111111111111111111111111111111111111111111111111111111111111111111111111111111111111111111111111111111",
"11111111111111111111111111111111111111111111111111111111111111111111111111111111111111111111111111111111111111111111111111111111",
"11111111111111111111111111111111111111111111111111111111111111111111111111111111111111111111111111111111111111111111111111111111",
"11111111111111111111111111111111111111111111111111111111111111111111111111111111111111111111111111111111111111111111111111111111",
"11111111111111111111111111111111111111111111111111111111111111111111111111111111111111111111111111111111111111111111111111111111",
"11111111111111111111111111111111111111111111111111111111111111111111111111111111111111111111111111111111111111111111111111111111",
"11111111111111111111111111111111111111111111111111111111111111111111111111111111111111111111111111111111111111111111111111111111",
"11111111111111111111111111111111111111111111111111111111111111111111111111111111111111111111111111111111111111111111111111111111",
"11111111111111111111111111111111111111111111111111111111111111111111111111111111111111111111111111111111111111111111111111111111",
"11111111111111111111111111111111111111111111111111111111111111111111111111111111111111111111111111111111111,,,,,,,>1111111111111",
"11111111111111111111111111111111111111111111111111111111111111111111111111111111111111111111111111111111111,222222,1111111111111",
"11111111111111111111111111111111111111111111111111111111111111111111111111111111111111111111111111111111111,2,,112,1111111111111",
"11111111111111111111111111111111111111111111111111111111111111111111111111111111111111111111111111111111111,2,,112,1111111111111",
"11111111111111111111111111111111111111111111111111111111111111111111111111111111111111111111111111111111111,222222,1111111111111",
"11111111111111111111111111111111111111111111111111111111111111111111111111111111111111111111111111111111111>,,,,,,,1111111111111",
"11111111111111111111111111111111111111111111111111111111111111111111111111111111111111111111111111111111111111111111111111111111",
"11111111111111111111111111111111111111111111111111111111111111111111111111111111111111111111111111111111111111111111111111111111",
"11111111111111111111111111111111111111111111111111111111111111111111111111111111111111111111111111111111111111111111111111111111",
"11111111111111111111111111111111111111111111111111111111111111111111111111111111111111111111111111111111111111111111111111111111",
"11111111111111111111111111111111111111111111111111111111111111111111111111111111111111111111111111111111111111111111111111111111",
"11111111111111111111111111111111111111111111111111111111111111111111111111111111111111111111111111111111111111111111111111111111",
"11111111111111111111111111111111111111111111111111111111111111111111111111111111111111111111111111111111111111111111111111111111",
"11111111111111111111111111111111111111111111111111111111111111111111111111111111111111111111111111111111111111111111111111111111",
"    222222222222222222222222222222222222222222222222222222222222222222222222222222222222222222222222222222222222222222222222222 ",
"    222222222222222222222222222222222222222222222222222222222222222222222222222222222222222222222222222222222222222222222222222 ",
"2222,,,,,,,,,,,,,,,,,,,,,,,,,,,,,,,,,,,,,,,,,,,,,,,,,,,,,,,,,,,,,,,,,,,,,,,,,,,,,,,,,,,,,,,,,,,,,,,,,,,,,,,,,,,,,,,,,,,,,,,,,,,,",
"2222,,,,,,,,,,,,,,,,,,,,,,,,,,,,,,,,,,,,,,,,,,,,,,,,,,,,,,,,,,,,,,,,,,,,,,,,,,,,,,,,,,,,,,,,,,,,,,,,,,,,,,,,,,,,,,,,,,,,,,,,,,,,",
"2222,,,,,,,,,,,,,,,,,,,,,,,,,,,,,,,,,,,,,,,,,,,,,,,,,,,,,,,,,,,,,,,,,,,,,,,,,,,,,,,,,,,,,,,,,,,,,,,,,,,,,,,,,,,,,,,,,,,,,,,,,,,,",
"1111,,,,,,,,,,,,,,,,,,,,,,,,,,,,,,,,,,,,,,,,,,,,,,,,,,,,,,,,,,,,,,,,,,,,,,,,,,,,,,,,,,,,,,,,,,,,,,,,,,,,,,,,,,,,,,,,,,,,,,,,,,,,",
"1111,,,,,,,,,,,,,,,,,,,,,,,,,,,,,,,,,,,,,,,,,,,,,,,,,,,,,,,,,,,,,,,,,,,,,,,,,,,,,,,,,,,,,,,,,,,,,,,,,,,,,,,,,,,,,,,,,,,,,,,,,,,,",
"1111,,,,,,,,,,,,,,,,,,,,,,,,,,,,,,,,,,,,,,,,,,,,,,,,,,,,,,,,,,,,,,,,,,,,,,,,,,,,,,,,,,,,,,,,,,,,,,,,,,,,,,,,,,,,,,,,,,,,,,,,,,,,",
"1111,,,,,,,,,,,,,,,,,,,,,,,,,,,,,,,,,,,,,,,,,,,,,,,,,,,,,,,,,,,,,,,,,,,,,,,,,,,,,,,,,,,,,,,,,,,,,,,,,,,,,,,,,,,,,,,,,,,,,,,,,,,,",
"1111,,,,,,,,,,,,,,,,,,,,,,,,,,,,,,,,,,,,,,,,,,,,,,,,,,,,,,,,,,,,,,,,,,,,,,,,,,,,,,,,,,,,,,,,,,,,,,,,,,,,,,,,,,,,,,,,,,,,,,,,,,,,"
};
