/* XPM */
static char *made_door[] = {
/* columns rows colors chars-per-pixel */
"128 128 15 1 ",
"  c #513418",
". c #553619",
"X c #5A3A1B",
"o c #623E1D",
"O c #64401E",
"+ c #6D4621",
"@ c #704822",
"# c #734A23",
"$ c #764C24",
"% c #845528",
"& c #88582A",
"* c #8B5A2B",
"= c #9A9A9A",
"- c #ACACAC",
"; c #C0C0C0",
/* pixels */
"................................................................................................................................",
".OO$$$$$$$$$$$$$$$$$$$$$$$$$$$$$$$$$$$$$$$$$$$$$$$$$$$$$$$$$$$$$O$$$$$$$$$$$$$$$$$$$$$$$$$$$$$$$$$$$$$$$$$$$$$$$$$$$$$$$$$$$$OO.",
".OO$$$$$$$$$$$$$$$$$$$$$$$$$$$$$$$$$$$$$$$$$$$$@@@@@@@@@$$$$$$$$O$$$$$$$$$@@@@@@@@@$$$$$$$$$$$$$$$$$$$$$$$$$$$$$$$$$$$$$$$$$$OO.",
".OO$$$$$$$$$$$$$$$$$$$$$$$$$$$$$$$$$$$$$$$$$$$$@@@@@@@@@$$$$$$$$O$$$$$$$$$@@@@@@@@@$$$$$$$$$$$$$$$$$$$$$$$$$@@@@@@@@@@@$$$$$$OO.",
".OO$$$$$$@@@@@@@@@$$$$$$$$$$$$$$$$$$$$$$$$$$$$$$$$$$$$$$$$$$$$$$O$$$$$$$$$$$$$$$$$$$$$$$$$$$$$$$$$$$$$$$$$$$@@@@@@@@@@@$$$$$$OO.",
".OO$$$$$$@@@@@@@@@$$$$$$$$$$$$$$$$$$$$$$$$$$$$$$$$$$$$$$$$$$$$$$O$$$$$$$$$$$$$$$$$$$$$$$$$$$$$$$$$$$$$$$$$$$$$$$$$$$$$$$$$$$$OO.",
".OO$$$$$$$$$$$$$$$$$$$$$$$$$$$$$$$$$$$$$$$$$$$$$$$$$$$$$$$$$$$$$O$$$$$$$$$$$$$$$$$$$$$$$$$$$$$$$$$$$$$$$$$$$$$$$$$$$$$$$$$$$$OO.",
".OOOOOOOOOOOOOOOOOOOOOOOOOOOOOOOOOOOOOOOOOOOOOOOOOOOOOOOOOOOOOOOOOOOOOOOOOOOOOOOOOOOOOOOOOOOOOOOOOOOOOOOOOOOOOOOOOOOOOOOOOOOOOO.",
".OO**********************************************************@$$O$$@*********************************************************OO.",
".OO**********************************************************@$$O$$@*********************************************************OO.",
".OO**********************************************************@$$O$$@*********************************************************OO.",
".OO**********************************************************@$$O$$@*********************************************************OO.",
".OO**********************************************************@$$O$$@*********************************************************OO.",
".OO**********************************************************@$$O$$@*********************************************************OO.",
".OO**********************************************************@$$O$$@*********************************************************OO.",
".OO*********************************%%%%%%%%%****************@$$O$$@*********************************************************OO.",
".OO*********************************%%%%%%%%%****************@$$O$$@***************************************%%%%%%%%**********OO.",
".OO**********************************************************@$$O$$@***************************************%%%%%%%%**********OO.",
".OO**********************************************************@$$O$$@*********************************************************OO.",
".OO**********************************************************@$$O$$@*********************************************************OO.",
".OO**********************************************************@$$O$$@*********************************************************OO.",
".OO**********************************************************@$$O$$@*********************************************************OO.",
".OO*******%%%%%%%%%%%%***************************************@$$O$$@*********************************************************OO.",
".OO*******%%%%%%%%%%%%***************************************@$$O$$@*********************************************************OO.",
".OO**********************************************************@$$O$$@*********************************************************OO.",
".OO**********************************************************@$$O$$@******************%%%%%%%%*******************************OO.",
".OO**********************************************************@$$O$$@******************%%%%%%%%*******************************OO.",
".OO**********************************************************@$$O$$@*********************************************************OO.",
".OO**********************************************************@$$O$$@*********************************************************OO.",
".OO**********************************************************@$$O$$@*********************************************************OO.",
".OO**********************************************************@$$O$$@*********************************************************OO.",
".OO**********************************************************@$$O$$@*********************************************************OO.",
".OO**********************************************************@$$O$$@*********************************************************OO.",
".OO**********************************************************@$$O$$@*********************************************************OO.",
".OO**********************************************************@$$O$$@*********************************************************OO.",
".OO**********************************************************@$$O$$@*********************************************************OO.",
".OO**********************************************************@$$O$$@*********************************************************OO.",
".OO**********************************************************@$$O$$@*********************************************************OO.",
".OO***********************************%%%%%%%%%**************@$$O$$@*********************************************************OO.",
".OO***********************************%%%%%%%%%**************@$$O$$@*********************************************************OO.",
".OO**********************************************************@$$O$$@*********************************************************OO.",
".OO**********************************************************@$$O$$@*********************************************************OO.",
".OO**********************************************************@$$O$$@*********************************************************OO.",
".OO**********************************************************@$$O$$@*********************************************************OO.",
".OO**********************************************************@$$O$$@*********************************************************OO.",
".OO**********************************************************@$$O$$@*********************************************************OO.",
".OO**********************************************************@$$O$$@*********************************************************OO.",
".OO**********************************************************@$$O$$@*********************************************************OO.",
".OO**********************************************************@$$O$$@*********************************************************OO.",
".OO**********************************************************@$$O$$@*********************************************************OO.",
".OO**********************************************************@$$O$$@*********************************************************OO.",
".OO**********************************************************@$$O$$@***************************************%%%%%%%%**********OO.",
".OO**********************************************************@$$O$$@***************************************%%%%%%%%**********OO.",
".OO**********************************************************@$$O$$@*********************************************************OO.",
".OO**********************************************************@$$O$$@*********************************************************OO.",
".OO**********************************************************@$$O$$@*********************************************************OO.",
".OO**********************************************************@$$O$$@*********************************************************OO.",
".OO**********************************************************@$$O$$@*********************************************************OO.",
".OO************%%%%%%%%%%************************************@$$O$$@*********************************************************OO.",
".OO************%%%%%%%%%%************************************@$$O$$@*********************************************************OO.",
".OO**********************************************************@$$O$$@*********************************************************OO.",
".OO**********************************************************@$$O$$@*********************************************************OO.",
".OO**********************************************************@$$O$$@*********************************************************OO.",
".OO**********************************************************@$$O$$@*********************************************************OO.",
".OO***********************************************;;*********@$$O$$@*********;;**********************************************OO.",
".OO**********************************************;--;********@$$O$$@********;--;*********************************************OO.",
".OO*********************************************;----;*******@$$O$$@*******;----;********************************************OO.",
".OO********************************************;------;******@$$O$$@******;-----;;*******************************************OO.",
".OO*****************************------------------===--;*****@$$O$$@*****;--===-------------------***************************OO.",
".OO****************************-======================--;****@$$O$$@****;--=======================-O*************************OO.",
".OO****************************-======================--;****@$$O$$@****;--=======================-O*************************OO.",
".OO****************************O------------------===--;O****@$$O$$@*****;--===-------------------O**************************OO.",
".OO*****************************OOOOOOOOOOOOOOO;;--=--;O*****@$$O$$@******;-----;;OOOOOOOOOOOOOOOO***************************OO.",
".OO********************************************O;;---;O******@$$O$$@*******;---;;O*******************************************OO.",
".OO*********************************************O;;;;O*******@$$O$$@********;;;;O********************************************OO.",
".OO**********************************************O;;O********@$$O$$@*********;;O*********************************************OO.",
".OO***********************************************OO*********@$$O$$@*********OO**********************************************OO.",
".OO**********************************************************@$$O$$@*********************************************************OO.",
".OO**********************************************************@$$O$$@*********************************************************OO.",
".OO**********************************************************@$$O$$@*********************************************************OO.",
".OO**********************************************************@$$O$$@*********************************************************OO.",
".OO**********************************************************@$$O$$@*********************************************************OO.",
".OO**********************************************************@$$O$$@*********************************************************OO.",
".OO**********************************************************@$$O$$@*********************************************************OO.",
".OO**********************************************************@$$O$$@*********************************************************OO.",
".OO**********************************************************@$$O$$@*********************************************************OO.",
".OO**********************************************************@$$O$$@*********************************************************OO.",
".OO**********************************************************@$$O$$@*********************************************************OO.",
".OO**********************************************************@$$O$$@*********************************************************OO.",
".OO*****%%%%%%%%%%%%%%***************************************@$$O$$@*********************************************************OO.",
".OO*****%%%%%%%%%%%%%%***************************************@$$O$$@************************************%%%%%%%%%%***********OO.",
".OO**********************************************************@$$O$$@************************************%%%%%%%%%%***********OO.",
".OO**********************************************************@$$O$$@*********************************************************OO.",
".OO**********************************************************@$$O$$@*********************************************************OO.",
".OO**********************************************************@$$O$$@*********************************************************OO.",
".OO**********************************************************@$$O$$@*********************************************************OO.",
".OO**********************************************************+##o$@+*********************************************************OO.",
".OO**********************************************************+##o@$+*********************************************************OO.",
".OO**********************************************************+##o@$+*********************************************************OO.",
".OO**********************************************************+##o$@+*********************************************************OO.",
".OO**********************************************************+##o$@+*********************************************************OO.",
".OO************************%%%%%%%%**************************+##o@$+*********************************************************OO.",
".OO************************%%%%%%%%**************************+##o$@+*********************************************************OO.",
".OO**********************************************************+##o@$+*********************************************************OO.",
".OO**********************************************************+##o@$+*********************************************************OO.",
".OO**********************************************************+##o$@+**********%%%%%%%%%%%%***********************************OO.",
".OO**********************************************************+##o$@+**********%%%%%%%%%%%%***********************************OO.",
".OO**********************************************************+##o@$+*********************************************************OO.",
".OO**********************************************************+##o$@+*********************************************************OO.",
".OO**********************************************************+##o@$+*********************************************************OO.",
".OO**********************************************************+##o@$+*********************************************************OO.",
".OO**********************************************************+##o$@+*********************************************************OO.",
".OO**********************************************************+##o$@+*********************************************************OO.",
".OO*********************************************************&+##o@$+*********************************************************OO.",
".OO*********************************************************&+##o$@+*********************************************************OO.",
".OO******%%%%%%%%%******************************************&+##o@$+*********************************************************OO.",
".OO******%%%%%%%%%******************************************&+##o@$+*********************************************************OO.",
".OO***********************************%%%%%%%%***************+##o$@+*********************************************************OO.",
".OO***********************************%%%%%%%%**************%+##o$@+*********************************************************OO.",
".OO**********************************************************+##o@$+***************************************%%%%%%%%%%********OO.",
".OO*********************************************************%+##o$@+***************************************%%%%%%%%%%********OO.",
".OO**********************************************************+##o@$+*********************************************************OO.",
".OO**********************************************************+##o@$+*********************************************************OO.",
".OO*********************************************************%+##o$@+*********************************************************OO.",
".OO**********************************************************+@$o$@+*********************************************************OO.",
".OO*********************************************************%+$@o@$+*********************************************************OO.",
".OO**********************************************************+@$o$@+*********************************************************OO.",
"..XX....OOOOX XXOXX...XOOXXXOOOOXX....XXXOOOOOOOOOOXXX......XXXXXXXXXX...OOOOXXXX......XXXXOOOXXX.......  XXOOXX...XXOOOXX......"
};
