/* XPM */
static char *made_wall_w[] = {
/* columns rows colors chars-per-pixel */
"128 128 5 1 ",
"  c black",
". c #B7B7B7",
"X c gray76",
"o c #D8D8D8",
"O c #E4E4E4",
/* pixels */
"XXXXXXXXXXXXXXXXXXXXXXXXXXXXXXXXXXXXXXXXXXXXXXXXXXXXXXXXXXXXXXXXXXXXXXXXXXXXXXXXXXXXXXXXXXXXXXXXXXXXXXXXXXXXXXXXXXXXXXXXXXXXXooo",
"XXXXXXXXXXXXXXXXXXXXXXXXXXXXXXXXXXXXXXXXXXXXXXXXXXXXXXXXXXXXXXXXXXXXXXXXXXXXXXXXXXXXXXXXXXXXXXXXXXXXXXXXXXXXXXXXXXXXXXXXXXXXXooo",
"XXXXXXXXXXXXXXXXXXXXXXXXXXXXXXXXXXXXXXXXXXXXXXXXXXXXXXXXXXXXXXXXXXXXXXXXXXXXXXXXXXXXXXXXXXXXXXXXXXXXXXXXXXXXXXXXXXXXXXXXXXXXXooo",
"XXXXXXXXXXXXXXXXXXXXXXXXXXXXXXXXXXXXXXXXXXXXXXXXXXXXXXXXXXXXXXXXXXXXXXXXXXXXXXXXXXXXXXXXXXXXXXXXXXXXXXXXXXXXXXXXXXXXXXXXXXXXXOOO",
"XXXXXXXXXXXXXXXXXXXXXXXXXXXXXXXXXXXXXXXXXXXXXXXXXXXXXXXXXXXXXXXXXXXXXXXXXXXXXXXXXXXXXXXXXXXXXXXXXXXXXXXXXXXXXXXXXXXXXXXXXXXXXOOO",
" OOOOOOOOOOOOOOOOOOOOOOOOOOOOOOOOOOOOOOOOOOOOOOOOOOOOOOOOOOOOOOOOOOOOOOOOOOOOOOOOOOOOOOOOOOOOOOOOOOOOOOOOOOOOOOOOOOOOOOOOOOOO   ",
" OOOOOOOOOOOOOOOOOOOOOOOOOOOOOOOOOOOOOOOOOOOOOOOOOOOOOOOOOOOOOOOOOOOOOOOOOOOOOOOOOOOOOOOOOOOOOOOOOOOOOOOOOOOOOOOOOOOOOOOOOOOO   ",
"oooooooooooooooooooooooooooooooooooooooooooooooooooooooooooooooooooooooooooooooooooooooooooooooooooooooooooooooooooooooooooooooo",
"oooooooooooooooooooooooooooooooooooooooooooooooooooooooooooooooooooooooooooooooooooooooooooooooooooooooooooooooooooooooooooooooo",
"oooooooooooooooooooooooooooooooooooooooooooooooooooooooooooooooooooooooooooooooooooooooooooooooooooooooooooooooooooooooooooooooo",
"oooooooooooooooooooooooooooooooooooooooooooooooooooooooooooooooooooooooooooooooooooooooooooooooooooooooooooooooooooooooooooooooo",
"oooooooooooooooooooooooooooooooooooooooooooooooooooooooooooooooooooooooooooooooooooooooooooooooooooooooooooooooooooooooooooooooo",
"oooooooooooooooooooooooooooooooooooooooooooooooooooooooooooooooooooooooooooooooooooooooooooooooooooooooooooooooooooooooooooooooo",
"oooooooooooooooooooooooooooooooooooooooooooooooooooooooooooooooooooooooooooooooooooooooooooooooooooooooooooooooooooooooooooooooo",
"oooooooooooooooooooooooooooooooooooooooooooooooooooooooooooooooooooooooooooooooooooooooooooooooooooooooooooooooooooooooooooooooo",
"oooooooooooooooooooooooooooooooooooooooooooooooooooooooooooooooooooooooooooooooooooooooooooooooooooooooooooooooooooooooooooooooo",
"oooooooooooooooooooooooooooooooooooooooooooooooooooooooooooooooooooooooooooooooooooooooooooooooooooooooooooooooooooooooooooooooo",
"oooooooooooooooooooooooooooooooooooooooooooooooooooooooooooooooooooooooooooooooooooooooooooooooooooooooooooooooooooooooooooooooo",
"oooooooooooooooooooooooooooooooooooooooooooooooooooooooooooooooooooooooooooooooooooooooooooooooooooooooooooooooooooooooooooooooo",
"oooooooooooooooooooooooooooooooooooooooooooooooooooooooooooooooooooooooooooooooooooooooooooooooooooooooooooooooooooooooooooooooo",
"ooooooooooooooooooooooooooooooooooooooooooooooo                       .ooooooooo                     .                      .ooo",
"oooooooooooooooooooooooooooooooooooooooooooooo                       ..ooooooooo                    ..                      .ooo",
"ooooooooooooooooooooooooooooooooooooooooooooo                       ..oooooooooo                   ..o                      .ooo",
"oooooooooooooooooooooooooooooooooooooooooooo                       ..ooooooooooo                  ..oo                      .ooo",
"ooooooooooooooooooooooooooooooooooooooooooo                       ..oooooooooooo                 ..ooo                      .ooo",
"oooooooooooooooooooooooooooooooooooooooooo                       ..ooooooooooooo                ..oooo                      .ooo",
"ooooooooooooooooooooooooooooooooooooooooo                       ..oooooooooooooo               ..ooooo                      .ooo",
"oooooooooooooooooooooooooooooooooooooooo                       ..ooooooooooooooo              ..oooooo                      .ooo",
"ooooooooooooooooooooooooooooooooooooooo                       ..oooooooooooooooo             ..ooooooo                      .ooo",
"oooooooooooooooooooooooooooooooooooooo                       ..ooooooooooooooooo            ..oooooooo                      .ooo",
"ooooooooooooooooooooooooooooooooooooo                       ..oooooooooooooooooo           ..ooooooooo                      .ooo",
"oooooooooooooooooooooooooooooooooooo                       ..ooooooooooooooooooo          ..oooooooooo                      .ooo",
"ooooooooooooooooooooooooooooooooooo                       ..oooooooooooooooooooo         ..ooooooooooo                      .ooo",
"oooooooooooooooooooooooooooooooooo                       ..ooooooooooooooooooooo        ..oooooooooooo                      .ooo",
"ooooooooooooooooooooooooooooooooo                       ..oooooooooooooooooooooo       ..ooooooooooooo                      .ooo",
"oooooooooooooooooooooooooooooooo                       ..ooooooooooooooooooooooo      ..oooooooooooooo                      .ooo",
"ooooooooooooooooooooooooooooooo                       ..oooooooooooooooooooooooo     ..ooooooooooooooo                      .ooo",
"oooooooooooooooooooooooooooooo                       ..ooooooooooooooooooooooooo    ..oooooooooooooooo                      .ooo",
"ooooooooooooooooooooooooooooo                       ..oooooooooooooooooooooooooo   ..ooooooooooooooooo                      .ooo",
"oooooooooooooooooooooooooooo                       ..ooooooooooooooooooooooooooo  ..oooooooooooooooooo                      .ooo",
"ooooooooooooooooooooooooooo                       ..oooooooooooooooooooooooooooo ..ooooooooooooooooooo                      .ooo",
"oooooooooooooooooooooooooo                       ..ooooooooooooooooooooooooooooo..oooooooooooooooooooo                      .ooo",
"ooooooooooooooooooooooooo                       ..ooooooooooooooooooooooooooooooooooooooooooooooooooo                      ..ooo",
"oooooooooooooooooooooooo                       ..ooooooooooooooooooooooooooooooooooooooooooooooooooo                      .ooooo",
"ooooooooooooooooooooooo                       ..ooooooooooooooooooooooooooooooooooooooooooooooooooo                      ..ooooo",
"oooooooooooooooooooooo                       ..ooooooooooooooooooooooooooooooooooooooooooooooooooo                      ..oooooo",
"ooooooooooooooooooooo                       ..ooooooooooooooooooooooooooooooooooooooooooooooooooo                      ..ooooooo",
"oooooooooooooooooooo                       ..ooooooooooooooooooooooooooooooooooooooooooooooooooo                      ..oooooooo",
"ooooooooooooooooooo                       ..ooooooooooooooooooooooooooooooooooooooooooooooooooo                      ..ooooooooo",
"oooooooooooooooooo                       ..ooooooooooooooooooooooooooooooooooooooooooooooooooo                      ..oooooooooo",
"ooooooooooooooooo                       ..ooooooooooooooooooooooooooooooooooooooooooooooooooo                      ..ooooooooooo",
"oooooooooooooooo                       ..ooooooooooooooooooooooooooooooooooooooooooooooooooo                      ..oooooooooooo",
"ooooooooooooooo                       ..ooooooooooooooooooooooooooooooooooooooooooooooooooo                      ..ooooooooooooo",
"oooooooooooooo                       ..ooooooooooooooooooooooooooooooooooooooooooooooooooo                      ..oooooooooooooo",
"ooooooooooooo                       ..ooooooooooooooooooooooooooooooooooooooooooooooooooo                      ..ooooooooooooooo",
"oooooooooooo                       ..ooooooooooooooooooooooooooooooooooooooooooooooooooo                      ..oooooooooooooooo",
"ooooooooooo                       ..ooooooooooooooooooooooooooooooooooooooooooooooooooo                      ..ooooooooooooooooo",
"oooooooooo                       ..ooooooooooooooooooooooooooooooooooooooooooooooooooo                      ..oooooooooooooooooo",
"ooooooooo                       ..ooooooooooooooooooooooooooooooooooooooooooooooooooo                      ..ooooooooooooooooooo",
"oooooooo                       ..ooooooooooooooooooooooooooooooooooooooooooooooooooo                      ..oooooooooooooooooooo",
"ooooooo                       ..ooooooooooooooooooooooooooooooooooooooooooooooooooo                      ..ooooooooooooooooooooo",
"oooooo                       ..ooooooooooooooooooooooooooooooooooooooooooooooooooo                      ..oooooooooooooooooooooo",
"ooooo                       ..ooooooooooooooooooooooooooooooooooooooooooooooooooo                      ..ooooooooooooooooooooooo",
"oooo                       .oooooooooooooooooooooooooooooooooooooooooooooooooooo                      ..oooooooooooooooooooooooo",
"oooo                                                                  .ooooooooo                      ooooooooooooooooooooo .ooo",
"oooo                                                                  .ooooooooo                      oooooooooooooooooooo  .ooo",
"oooo                                                                  .ooooooooo                      ooooooooooooooooooo   .ooo",
"oooo                                                                  .ooooooooo                      oooooooooooooooooo    .ooo",
"oooo                                                                  .ooooooooo                      ooooooooooooooooo     .ooo",
"oooo                                                                  .ooooooooo                      oooooooooooooooo      .ooo",
"oooo                                                                  .ooooooooo                      ooooooooooooooo       .ooo",
"oooo                                                                  .ooooooooo                      oooooooooooooo        .ooo",
"oooo                                                                  .ooooooooo                      ooooooooooooo         .ooo",
"oooo                                                                  .ooooooooo                      oooooooooooo          .ooo",
"oooo                                                                  .ooooooooo                      ooooooooooo           .ooo",
"oooo                                                                  .ooooooooo                      oooooooooo            .ooo",
"oooo                                                                  .ooooooooo                      ooooooooo             .ooo",
"oooo                                                                  .ooooooooo                      oooooooo              .ooo",
"oooo                                                                  .ooooooooo                      ooooooo               .ooo",
"oooo                                                                  .ooooooooo                      oooooo                .ooo",
"oooo                                                                  .ooooooooo                      ooooo                 .ooo",
"oooo                                                                  .ooooooooo                      oooo                  .ooo",
"oooo                                                                  .ooooooooo                      ooo                   .ooo",
"oooo                                                                  .ooooooooo                      oo                    .ooo",
"oooo.............................................                     .ooooooooo                      o                     .ooo",
"ooooooooooooooooooooooooooooooooooooooooooooooooo                     .ooooooooo                                            .ooo",
"ooooooooooooooooooooooooooooooooooooooooooooooooo                     .ooooooooo.............................................ooo",
"ooooooooooooooooooooooooooooooooooooooooooooooooo                     .ooooooooooooooooooooooooooooooooooooooooooooooooooooooooo",
"ooooooooooooooooooooooooooooooooooooooooooooooooo                     .ooooooooooooooooooooooooooooooooooooooooooooooooooooooooo",
"ooooooooooooooooooooooooooooooooooooooooooooooooo                     .ooooooooooooooooooooooooooooooooooooooooooooooooooooooooo",
"ooooooooooooooooooooooooooooooooooooooooooooooooo                     .ooooooooooooooooooooooooooooooooooooooooooooooooooooooooo",
"ooooooooooooooooooooooooooooooooooooooooooooooooo                     .ooooooooooooooooooooooooooooooooooooooooooooooooooooooooo",
"ooooooooooooooooooooooooooooooooooooooooooooooooo                     .ooooooooooooooooooooooooooooooooooooooooooooooooooooooooo",
"ooooooooooooooooooooooooooooooooooooooooooooooooo                     .ooooooooooooooooooooooooooooooooooooooooooooooooooooooooo",
"ooooooooooooooooooooooooooooooooooooooooooooooooo                     .ooooooooooooooooooooooooooooooooooooooooooooooooooooooooo",
"ooooooooooooooooooooooooooooooooooooooooooooooooo                     .ooooooooooooooooooooooooooooooooooooooooooooooooooooooooo",
"ooooooooooooooooooooooooooooooooooooooooooooooooo                     .ooooooooooooooooooooooooooooooooooooooooooooooooooooooooo",
"ooooooooooooooooooooooooooooooooooooooooooooooooo                     .ooooooooooooooooooooooooooooooooooooooooooooooooooooooooo",
"ooooooooooooooooooooooooooooooooooooooooooooooooo                     .ooooooooooooooooooooooooooooooooooooooooooooooooooooooooo",
"ooooooooooooooooooooooooooooooooooooooooooooooooo                     .ooooooooooooooooooooooooooooooooooooooooooooooooooooooooo",
"ooooooooooooooooooooooooooooooooooooooooooooooooo                     .ooooooooooooooooooooooooooooooooooooooooooooooooooooooooo",
"ooooooooooooooooooooooooooooooooooooooooooooooooo                     .ooooooooooooooooooooooooooooooooooooooooooooooooooooooooo",
"ooooooooooooooooooooooooooooooooooooooooooooooooo                     .ooooooooooooooooooooooooooooooooooooooooooooooooooooooooo",
"ooooooooooooooooooooooooooooooooooooooooooooooooo                     .ooooooooooooooooooooooooooooooooooooooooooooooooooooooooo",
"ooooooooooooooooooooooooooooooooooooooooooooooooo......................ooooooooooooooooooooooooooooooooooooooooooooooooooooooooo",
"oooooooooooooooooooooooooooooooooooooooooooooooooooooooooooooooooooooooooooooooooooooooooooooooooooooooooooooooooooooooooooooooo",
"oooooooooooooooooooooooooooooooooooooooooooooooooooooooooooooooooooooooooooooooooooooooooooooooooooooooooooooooooooooooooooooooo",
"oooooooooooooooooooooooooooooooooooooooooooooooooooooooooooooooooooooooooooooooooooooooooooooooooooooooooooooooooooooooooooooooo",
"oooooooooooooooooooooooooooooooooooooooooooooooooooooooooooooooooooooooooooooooooooooooooooooooooooooooooooooooooooooooooooooooo",
"oooooooooooooooooooooooooooooooooooooooooooooooooooooooooooooooooooooooooooooooooooooooooooooooooooooooooooooooooooooooooooooooo",
"oooooooooooooooooooooooooooooooooooooooooooooooooooooooooooooooooooooooooooooooooooooooooooooooooooooooooooooooooooooooooooooooo",
"oooooooooooooooooooooooooooooooooooooooooooooooooooooooooooooooooooooooooooooooooooooooooooooooooooooooooooooooooooooooooooooooo",
"oooooooooooooooooooooooooooooooooooooooooooooooooooooooooooooooooooooooooooooooooooooooooooooooooooooooooooooooooooooooooooooooo",
"oooooooooooooooooooooooooooooooooooooooooooooooooooooooooooooooooooooooooooooooooooooooooooooooooooooooooooooooooooooooooooooooo",
"oooooooooooooooooooooooooooooooooooooooooooooooooooooooooooooooooooooooooooooooooooooooooooooooooooooooooooooooooooooooooooooooo",
"oooooooooooooooooooooooooooooooooooooooooooooooooooooooooooooooooooooooooooooooooooooooooooooooooooooooooooooooooooooooooooooooo",
"oooooooooooooooooooooooooooooooooooooooooooooooooooooooooooooooooooooooooooooooooooooooooooooooooooooooooooooooooooooooooooooooo",
"oooooooooooooooooooooooooooooooooooooooooooooooooooooooooooooooooooooooooooooooooooooooooooooooooooooooooooooooooooooooooooooooo",
"    OOOOOOOOOOOOOOOOOOOOOOOOOOOOOOOOOOOOOOOOOOOOOOOOOOOOOOOOOOOOOOOOOOOOOOOOOOOOOOOOOOOOOOOOOOOOOOOOOOOOOOOOOOOOOOOOOOOOOOOOOOO ",
"    OOOOOOOOOOOOOOOOOOOOOOOOOOOOOOOOOOOOOOOOOOOOOOOOOOOOOOOOOOOOOOOOOOOOOOOOOOOOOOOOOOOOOOOOOOOOOOOOOOOOOOOOOOOOOOOOOOOOOOOOOOO ",
"OOOOXXXXXXXXXXXXXXXXXXXXXXXXXXXXXXXXXXXXXXXXXXXXXXXXXXXXXXXXXXXXXXXXXXXXXXXXXXXXXXXXXXXXXXXXXXXXXXXXXXXXXXXXXXXXXXXXXXXXXXXXXXXX",
"OOOOXXXXXXXXXXXXXXXXXXXXXXXXXXXXXXXXXXXXXXXXXXXXXXXXXXXXXXXXXXXXXXXXXXXXXXXXXXXXXXXXXXXXXXXXXXXXXXXXXXXXXXXXXXXXXXXXXXXXXXXXXXXX",
"OOOOXXXXXXXXXXXXXXXXXXXXXXXXXXXXXXXXXXXXXXXXXXXXXXXXXXXXXXXXXXXXXXXXXXXXXXXXXXXXXXXXXXXXXXXXXXXXXXXXXXXXXXXXXXXXXXXXXXXXXXXXXXXX",
"ooooXXXXXXXXXXXXXXXXXXXXXXXXXXXXXXXXXXXXXXXXXXXXXXXXXXXXXXXXXXXXXXXXXXXXXXXXXXXXXXXXXXXXXXXXXXXXXXXXXXXXXXXXXXXXXXXXXXXXXXXXXXXX",
"ooooXXXXXXXXXXXXXXXXXXXXXXXXXXXXXXXXXXXXXXXXXXXXXXXXXXXXXXXXXXXXXXXXXXXXXXXXXXXXXXXXXXXXXXXXXXXXXXXXXXXXXXXXXXXXXXXXXXXXXXXXXXXX",
"ooooXXXXXXXXXXXXXXXXXXXXXXXXXXXXXXXXXXXXXXXXXXXXXXXXXXXXXXXXXXXXXXXXXXXXXXXXXXXXXXXXXXXXXXXXXXXXXXXXXXXXXXXXXXXXXXXXXXXXXXXXXXXX",
"ooooXXXXXXXXXXXXXXXXXXXXXXXXXXXXXXXXXXXXXXXXXXXXXXXXXXXXXXXXXXXXXXXXXXXXXXXXXXXXXXXXXXXXXXXXXXXXXXXXXXXXXXXXXXXXXXXXXXXXXXXXXXXX",
"ooooXXXXXXXXXXXXXXXXXXXXXXXXXXXXXXXXXXXXXXXXXXXXXXXXXXXXXXXXXXXXXXXXXXXXXXXXXXXXXXXXXXXXXXXXXXXXXXXXXXXXXXXXXXXXXXXXXXXXXXXXXXXX"
};
