/* XPM */
static char * Untitled_xpm[] = {
"76 76 233 2",
"  	c #C7C7C7",
". 	c #C6C6C6",
"+ 	c #C5C5C5",
"@ 	c #000000",
"# 	c #7C7C7C",
"$ 	c #747474",
"% 	c #757575",
"& 	c #737373",
"* 	c #787878",
"= 	c #797979",
"- 	c #777777",
"; 	c #727272",
"> 	c #767676",
", 	c #1B1B1B",
"' 	c #1D1D1D",
") 	c #1A1A1A",
"! 	c #1E1E1E",
"~ 	c #191919",
"{ 	c #D4D4D4",
"] 	c #121212",
"^ 	c #0F0F0F",
"/ 	c #131313",
"( 	c #141414",
"_ 	c #111111",
": 	c #1C1C1C",
"< 	c #151515",
"[ 	c #101010",
"} 	c #0D0D0D",
"| 	c #0C0C0C",
"1 	c #D6D6D6",
"2 	c #C7D7DD",
"3 	c #BBCFD6",
"4 	c #B0C7CF",
"5 	c #B1C8D0",
"6 	c #B6CBD3",
"7 	c #B5CBD2",
"8 	c #363636",
"9 	c #1F1E1E",
"0 	c #CADADF",
"a 	c #B9CDD4",
"b 	c #B7CCD4",
"c 	c #B8CDD4",
"d 	c #CAD9DE",
"e 	c #353535",
"f 	c #292828",
"g 	c #C6D7DD",
"h 	c #C3D5DB",
"i 	c #D0DDE2",
"j 	c #CAD9DF",
"k 	c #3F3E3F",
"l 	c #242424",
"m 	c #2B2A2A",
"n 	c #D9E3E7",
"o 	c #E2EAED",
"p 	c #DCE6EA",
"q 	c #D7E3E7",
"r 	c #DDE7EA",
"s 	c #E1EAED",
"t 	c #404040",
"u 	c #D7D7D7",
"v 	c #2F2E2E",
"w 	c #C5D6DC",
"x 	c #C9D9DE",
"y 	c #4A4A4A",
"z 	c #232323",
"A 	c #252525",
"B 	c #302F2F",
"C 	c #D8E3E7",
"D 	c #E0E9EC",
"E 	c #D7E2E7",
"F 	c #D8E3E8",
"G 	c #494949",
"H 	c #1C1B1C",
"I 	c #D8D8D8",
"J 	c #272727",
"K 	c #333232",
"L 	c #C4D5DB",
"M 	c #BED1D7",
"N 	c #B2C8D0",
"O 	c #B7CCD3",
"P 	c #B6CBD2",
"Q 	c #4F4F4F",
"R 	c #262626",
"S 	c #313030",
"T 	c #C8D8DE",
"U 	c #CBDADF",
"V 	c #BED2D8",
"W 	c #1F1F1F",
"X 	c #D9D9D9",
"Y 	c #C3D4DA",
"Z 	c #C2D4DA",
"` 	c #B2C9D0",
" .	c #515151",
"..	c #282828",
"+.	c #2B2B2B",
"@.	c #C3D5DA",
"#.	c #212121",
"$.	c #DBDBDB",
"%.	c #C1D3DA",
"&.	c #BED1D8",
"*.	c #545454",
"=.	c #2E2E2E",
"-.	c #343333",
";.	c #C6D7DC",
">.	c #C7D7DE",
",.	c #535353",
"'.	c #222222",
").	c #DCDCDC",
"!.	c #292929",
"~.	c #323131",
"{.	c #C0D2D9",
"].	c #C4D6DB",
"^.	c #D3E0E4",
"/.	c #565756",
"(.	c #2F2F2F",
"_.	c #2D2D2D",
":.	c #313131",
"<.	c #D2DFE4",
"[.	c #DAE5E9",
"}.	c #DAE5E8",
"|.	c #D6E2E6",
"1.	c #DEDEDD",
"2.	c #BFD2D8",
"3.	c #D1DFE3",
"4.	c #D0DEE2",
"5.	c #CDDCE1",
"6.	c #565656",
"7.	c #D7E3E6",
"8.	c #CEDCE1",
"9.	c #E0E0E0",
"0.	c #BDD0D7",
"a.	c #C0D3DA",
"b.	c #B4CAD1",
"c.	c #575757",
"d.	c #C3D4DB",
"e.	c #BDD0D6",
"f.	c #BDD1D6",
"g.	c #C0D2D8",
"h.	c #BFD1D8",
"i.	c #585858",
"j.	c #C2D3DA",
"k.	c #E2E2E2",
"l.	c #C8D8DD",
"m.	c #C7D8DD",
"n.	c #BBCED5",
"o.	c #595959",
"p.	c #303030",
"q.	c #C7D7DC",
"r.	c #585859",
"s.	c #E4E4E4",
"t.	c #2A2A2A",
"u.	c #BACED5",
"v.	c #BCCFD6",
"w.	c #BCD0D6",
"x.	c #BBCFD5",
"y.	c #B3C9D1",
"z.	c #323232",
"A.	c #353434",
"B.	c #C0D3D9",
"C.	c #B9CCD4",
"D.	c #5B5B5B",
"E.	c #E5E5E5",
"F.	c #2C2C2C",
"G.	c #333333",
"H.	c #BBCED6",
"I.	c #B9CED5",
"J.	c #B9CDD5",
"K.	c #5A5A5A",
"L.	c #323233",
"M.	c #BED0D7",
"N.	c #E7E7E7",
"O.	c #5C5C5C",
"P.	c #C0D3D8",
"Q.	c #5E5E5E",
"R.	c #E8E8E8",
"S.	c #373636",
"T.	c #B7CBD3",
"U.	c #B6CAD2",
"V.	c #B4CAD2",
"W.	c #B8CCD4",
"X.	c #B2C9D1",
"Y.	c #363535",
"Z.	c #B6CCD3",
"`.	c #EAEAEA",
" +	c #2D2C2C",
".+	c #E9E9E9",
"++	c #424242",
"@+	c #525252",
"#+	c #555555",
"$+	c #393939",
"%+	c #3D3D3D",
"&+	c #3E3E3E",
"*+	c #3F3F3F",
"=+	c #3A3A3A",
"-+	c #373737",
";+	c #3C3C3C",
">+	c #3B3B3B",
",+	c #191818",
"'+	c #161616",
")+	c #1B1A1A",
"!+	c #202020",
"~+	c #171717",
"{+	c #212020",
"]+	c #444444",
"^+	c #242323",
"/+	c #2C2B2B",
"(+	c #4C4C4C",
"_+	c #B1C7CF",
":+	c #2A2929",
"<+	c #181818",
"[+	c #ECECEC",
"}+	c #383838",
"|+	c #4B4B4B",
"1+	c #505151",
"2+	c #505050",
"3+	c #4D4D4D",
"4+	c #4E4E4E",
"5+	c #F1F1F1",
"6+	c #C3C3C3",
"7+	c #CCCCCC",
"8+	c #BEBEBE",
"9+	c #4B5D69",
"0+	c #536571",
"a+	c #50636F",
"b+	c #4E606C",
"c+	c #526570",
"d+	c #4F616D",
"e+	c #50626E",
"f+	c #4A5C68",
"g+	c #4D5F6B",
"h+	c #51646F",
"i+	c #C9C9C9",
"j+	c #BDBDBD",
"    . . .     . . . . . . . . . .         . . . . .           . . . . . . . + + + + + + + + + . . . . .       @ @ @ @ @ @ @ @ @ @ @ @ @ @ @ @ @ @ @ @ @ ",
"    . . .     . . . . . . . . . .         . . . . .           . . . . . . . + + + + + + + + + . . . . .       @ @ @ @ @ @ @ @ @ @ @ @ @ @ @ @ @ @ @ @ @ ",
"# # $ $ $ $ $ $ $ % % % & & $ $ $ & & & & & & & & & * * = = = % % - - - = = $ $ & & & ; ; $ $ > > > & & # # # @ @ @ @ @ @ @ @ @ @ @ @ @ @ @ @ @ @ @ @ @ ",
"# # $ $ $ $ $ $ $ % % % & & $ $ $ & & & & & & & & & * * = = = % % - - - = = $ $ & & & ; ; $ $ > > > & & # # # @ @ @ @ @ @ @ @ @ @ @ @ @ @ @ @ @ @ @ @ @ ",
"# # $ $ $ $ $ $ $ % % % & & $ $ $ & & & & & & & & & * * = = = % % - - - = = $ $ & & & ; ; $ $ > > > & & # # # @ @ @ @ @ @ @ @ @ @ @ @ @ @ @ @ @ @ @ @ @ ",
", , ' ' ' ) ) , , ) ) ) ) ) ! ! ! ! ! ' ' ' ' ' ! ! ! ! ' ' ' ) ) ) ) ) ) ) ) ) ) ) ) ) ) , , ) ) ) ~ ~ { { { @ @ @ @ @ @ @ @ @ @ @ @ @ @ @ @ @ @ @ @ @ ",
", , ' ' ' ) ) , , ) ) ) ) ) ! ! ! ! ! ' ' ' ' ' ! ! ! ! ' ' ' ) ) ) ) ) ) ) ) ) ) ) ) ) ) , , ) ) ) ~ ~ { { { @ @ @ @ @ @ @ @ @ @ @ @ @ @ @ @ @ @ @ @ @ ",
", , ] ] ] ^ ^ ] ] ] ] ] / / ( ( ( _ _ ^ ^ ^ ^ ^ : : : : ] ] ] ^ ^ ] ] ] ( ( < < ( ( ( [ [ } } | | | ~ ~ 1 1 1 @ @ @ @ @ @ @ @ @ @ @ @ @ @ @ @ @ @ @ @ @ ",
", , ] ] ] ^ ^ ] ] ] ] ] / / ( ( ( _ _ ^ ^ ^ ^ ^ : : : : ] ] ] ^ ^ ] ] ] ( ( < < ( ( ( [ [ } } | | | ~ ~ 1 1 1 @ @ @ @ @ @ @ @ @ @ @ @ @ @ @ @ @ @ @ @ @ ",
": : ! ! ! 2 2 3 3 4 4 4 4 4 5 5 5 6 6 7 7 8 8 8 : : ! ! 9 9 9 0 0 0 0 0 a a b b c c c d d d d e e e ) ) 1 1 1 @ @ @ @ @ @ @ @ @ @ @ @ @ @ @ @ @ @ @ @ @ ",
": : ! ! ! 2 2 3 3 4 4 4 4 4 5 5 5 6 6 7 7 8 8 8 : : ! ! 9 9 9 0 0 0 0 0 a a b b c c c d d d d e e e ) ) 1 1 1 @ @ @ @ @ @ @ @ @ @ @ @ @ @ @ @ @ @ @ @ @ ",
": : ! ! ! 2 2 3 3 4 4 4 4 4 5 5 5 6 6 7 7 8 8 8 : : ! ! 9 9 9 0 0 0 0 0 a a b b c c c d d d d e e e ) ) 1 1 1 @ @ @ @ @ @ @ @ @ @ @ @ @ @ @ @ @ @ @ @ @ ",
"! ! f f f g g h h 4 4 4 4 4 b b b i i j j k k k : : l l m m m n n o o o p p q q q q q r r s s t t t : : u u u @ @ @ @ @ @ @ @ @ @ @ @ @ @ @ @ @ @ @ @ @ ",
"! ! f f f g g h h 4 4 4 4 4 b b b i i j j k k k : : l l m m m n n o o o p p q q q q q r r s s t t t : : u u u @ @ @ @ @ @ @ @ @ @ @ @ @ @ @ @ @ @ @ @ @ ",
"l l v v v w w w w 6 6 6 4 4 b b b i i x x y y y z z A A B B B C C s s s D D E E E E E F F D D G G G H H I I I @ @ @ @ @ @ @ @ @ @ @ @ @ @ @ @ @ @ @ @ @ ",
"l l v v v w w w w 6 6 6 4 4 b b b i i x x y y y z z A A B B B C C s s s D D E E E E E F F D D G G G H H I I I @ @ @ @ @ @ @ @ @ @ @ @ @ @ @ @ @ @ @ @ @ ",
"l l v v v w w w w 6 6 6 4 4 b b b i i x x y y y z z A A B B B C C s s s D D E E E E E F F D D G G G H H I I I @ @ @ @ @ @ @ @ @ @ @ @ @ @ @ @ @ @ @ @ @ ",
"J J K K K L L L L M M M 4 4 N N N O O P P Q Q Q R R J J S S S T T U U U U U V V a a a a a w w Q Q Q W W X X X @ @ @ @ @ @ @ @ @ @ @ @ @ @ @ @ @ @ @ @ @ ",
"J J K K K L L L L M M M 4 4 N N N O O P P Q Q Q R R J J S S S T T U U U U U V V a a a a a w w Q Q Q W W X X X @ @ @ @ @ @ @ @ @ @ @ @ @ @ @ @ @ @ @ @ @ ",
"J J K K K Y Y Y Y Z Z Z ` ` 4 4 4 4 4 4 4  . . .....+.+.K K K h h @.@.@.Y Y M M 4 4 4 4 4 6 6  . . .#.#.$.$.$.@ @ @ @ @ @ @ @ @ @ @ @ @ @ @ @ @ @ @ @ @ ",
"J J K K K Y Y Y Y Z Z Z ` ` 4 4 4 4 4 4 4  . . .....+.+.K K K h h @.@.@.Y Y M M 4 4 4 4 4 6 6  . . .#.#.$.$.$.@ @ @ @ @ @ @ @ @ @ @ @ @ @ @ @ @ @ @ @ @ ",
"A A S S S Z Z %.%.Z Z Z &.&.c c c c c 7 7 *.*.*.+.+.=.=.-.-.-.;.;.T T T T T >.>.3 3 3 c c c c ,.,.,.'.'.).).).@ @ @ @ @ @ @ @ @ @ @ @ @ @ @ @ @ @ @ @ @ ",
"A A S S S Z Z %.%.Z Z Z &.&.c c c c c 7 7 *.*.*.+.+.=.=.-.-.-.;.;.T T T T T >.>.3 3 3 c c c c ,.,.,.'.'.).).).@ @ @ @ @ @ @ @ @ @ @ @ @ @ @ @ @ @ @ @ @ ",
"A A S S S Z Z %.%.Z Z Z &.&.c c c c c 7 7 *.*.*.+.+.=.=.-.-.-.;.;.T T T T T >.>.3 3 3 c c c c ,.,.,.'.'.).).).@ @ @ @ @ @ @ @ @ @ @ @ @ @ @ @ @ @ @ @ @ ",
"!.!.~.~.~.{.{.{.{.].].].^.^.i i i i i w w /././.(.(._._.:.:.:.<.<.[.[.[.}.}.}.}.|.|.|.i i i i *.*.*.l l 1.1.1.@ @ @ @ @ @ @ @ @ @ @ @ @ @ @ @ @ @ @ @ @ ",
"!.!.~.~.~.{.{.{.{.].].].^.^.i i i i i w w /././.(.(._._.:.:.:.<.<.[.[.[.}.}.}.}.|.|.|.i i i i *.*.*.l l 1.1.1.@ @ @ @ @ @ @ @ @ @ @ @ @ @ @ @ @ @ @ @ @ ",
"....e e e 2.2.&.&.Y Y Y 3.3.4.4.4.5.5.h h 6.6.6._._.(.(.~.~.~.4.4.q q q q q 7.7.|.|.|.8.8.5.5.*.*.*.l l 9.9.9.@ @ @ @ @ @ @ @ @ @ @ @ @ @ @ @ @ @ @ @ @ ",
"....e e e 2.2.&.&.Y Y Y 3.3.4.4.4.5.5.h h 6.6.6._._.(.(.~.~.~.4.4.q q q q q 7.7.|.|.|.8.8.5.5.*.*.*.l l 9.9.9.@ @ @ @ @ @ @ @ @ @ @ @ @ @ @ @ @ @ @ @ @ ",
"....K K K M M 0.0.&.&.&.a.a.M M M 6 6 b.b.c.c.c.(.(.(.(.~.~.~.d.d.].].].].].h h @.@.@.e.e.6 6 6.6.6.l l 9.9.9.@ @ @ @ @ @ @ @ @ @ @ @ @ @ @ @ @ @ @ @ @ ",
"....K K K M M 0.0.&.&.&.a.a.M M M 6 6 b.b.c.c.c.(.(.(.(.~.~.~.d.d.].].].].].h h @.@.@.e.e.6 6 6.6.6.l l 9.9.9.@ @ @ @ @ @ @ @ @ @ @ @ @ @ @ @ @ @ @ @ @ ",
"....K K K M M 0.0.&.&.&.a.a.M M M 6 6 b.b.c.c.c.(.(.(.(.~.~.~.d.d.].].].].].h h @.@.@.e.e.6 6 6.6.6.l l 9.9.9.@ @ @ @ @ @ @ @ @ @ @ @ @ @ @ @ @ @ @ @ @ ",
"!.!.K K K f.f.g.g.{.{.{.{.{.h.h.h.O O b.b.i.i.i.(.(.=.=.-.-.-.Z Z d.d.d.Y Y Y Y j.j.j.2.2.5 5 c.c.c.A A k.k.k.@ @ @ @ @ @ @ @ @ @ @ @ @ @ @ @ @ @ @ @ @ ",
"!.!.K K K f.f.g.g.{.{.{.{.{.h.h.h.O O b.b.i.i.i.(.(.=.=.-.-.-.Z Z d.d.d.Y Y Y Y j.j.j.2.2.5 5 c.c.c.A A k.k.k.@ @ @ @ @ @ @ @ @ @ @ @ @ @ @ @ @ @ @ @ @ ",
"+.+.-.-.-.&.&.w w l.l.l.m.m.2 2 2 L L n.n.o.o.o.p.p.(.(.K K K q.q.j j j j j j j x x x 2 2 O O r.r.r.R R s.s.s.@ @ @ @ @ @ @ @ @ @ @ @ @ @ @ @ @ @ @ @ @ ",
"+.+.-.-.-.&.&.w w l.l.l.m.m.2 2 2 L L n.n.o.o.o.p.p.(.(.K K K q.q.j j j j j j j x x x 2 2 O O r.r.r.R R s.s.s.@ @ @ @ @ @ @ @ @ @ @ @ @ @ @ @ @ @ @ @ @ ",
"+.+.-.-.-.&.&.w w l.l.l.m.m.2 2 2 L L n.n.o.o.o.p.p.(.(.K K K q.q.j j j j j j j x x x 2 2 O O r.r.r.R R s.s.s.@ @ @ @ @ @ @ @ @ @ @ @ @ @ @ @ @ @ @ @ @ ",
"t.t.K K K u.u.v.v.w.w.w.w.w.v.v.v.x.x.y.y.o.o.o.:.:.z.z.A.A.A.2.2.B.B.B.g.g.2.2.2.2.2.M M C.C.D.D.D.J J E.E.E.@ @ @ @ @ @ @ @ @ @ @ @ @ @ @ @ @ @ @ @ @ ",
"t.t.K K K u.u.v.v.w.w.w.w.w.v.v.v.x.x.y.y.o.o.o.:.:.z.z.A.A.A.2.2.B.B.B.g.g.2.2.2.2.2.M M C.C.D.D.D.J J E.E.E.@ @ @ @ @ @ @ @ @ @ @ @ @ @ @ @ @ @ @ @ @ ",
"F.F.G.G.G.3 3 H.H.u.u.u.u.u.I.I.I.J.J.b.b.K.K.K.:.:.L.L.-.-.-.M.M.&.&.&.&.&.M M w.w.w.n.n.I.I.D.D.D.t.t.N.N.N.@ @ @ @ @ @ @ @ @ @ @ @ @ @ @ @ @ @ @ @ @ ",
"F.F.G.G.G.3 3 H.H.u.u.u.u.u.I.I.I.J.J.b.b.K.K.K.:.:.L.L.-.-.-.M.M.&.&.&.&.&.M M w.w.w.n.n.I.I.D.D.D.t.t.N.N.N.@ @ @ @ @ @ @ @ @ @ @ @ @ @ @ @ @ @ @ @ @ ",
"+.+.G.G.G.M M h.h.h.h.h.M M M M M M.M.J.J.O.O.O.(.(.(.(.-.-.-.B.B.Z Z Z Z Z Z Z P.P.P.n.n.c c Q.Q.Q.....R.R.R.@ @ @ @ @ @ @ @ @ @ @ @ @ @ @ @ @ @ @ @ @ ",
"+.+.G.G.G.M M h.h.h.h.h.M M M M M M.M.J.J.O.O.O.(.(.(.(.-.-.-.B.B.Z Z Z Z Z Z Z P.P.P.n.n.c c Q.Q.Q.....R.R.R.@ @ @ @ @ @ @ @ @ @ @ @ @ @ @ @ @ @ @ @ @ ",
"+.+.G.G.G.M M h.h.h.h.h.M M M M M M.M.J.J.O.O.O.(.(.(.(.-.-.-.B.B.Z Z Z Z Z Z Z P.P.P.n.n.c c Q.Q.Q.....R.R.R.@ @ @ @ @ @ @ @ @ @ @ @ @ @ @ @ @ @ @ @ @ ",
"....S.S.S.O O O O T.T.T.P P P P P U.U.V.V.K.K.K.=.=._._.-.-.-.J.J.3 3 3 n.n.n.n.u.u.u.W.W.b b Q.Q.Q.J J R.R.R.@ @ @ @ @ @ @ @ @ @ @ @ @ @ @ @ @ @ @ @ @ ",
"....S.S.S.O O O O T.T.T.P P P P P U.U.V.V.K.K.K.=.=._._.-.-.-.J.J.3 3 3 n.n.n.n.u.u.u.W.W.b b Q.Q.Q.J J R.R.R.@ @ @ @ @ @ @ @ @ @ @ @ @ @ @ @ @ @ @ @ @ ",
"t.t.G.G.G.b.b.b.b.y.y.y.y.y.y.y.y.X.X.` ` D.D.D._._._._.Y.Y.Y.b.b.c c c c c W.W.O O O O O Z.Z.O.O.O.J J `.`.`.@ @ @ @ @ @ @ @ @ @ @ @ @ @ @ @ @ @ @ @ @ ",
"t.t.G.G.G.b.b.b.b.y.y.y.y.y.y.y.y.X.X.` ` D.D.D._._._._.Y.Y.Y.b.b.c c c c c W.W.O O O O O Z.Z.O.O.O.J J `.`.`.@ @ @ @ @ @ @ @ @ @ @ @ @ @ @ @ @ @ @ @ @ ",
"J J B B B y.y.y.y.X.X.X.` ` N N N N N 5 5 O.O.O.F.F.!.!. + + +5 5 W.W.W.O O O O Z.Z.Z.6 6 7 7 K.K.K.t.t..+.+.+@ @ @ @ @ @ @ @ @ @ @ @ @ @ @ @ @ @ @ @ @ ",
"J J B B B y.y.y.y.X.X.X.` ` N N N N N 5 5 O.O.O.F.F.!.!. + + +5 5 W.W.W.O O O O Z.Z.Z.6 6 7 7 K.K.K.t.t..+.+.+@ @ @ @ @ @ @ @ @ @ @ @ @ @ @ @ @ @ @ @ @ ",
"J J B B B y.y.y.y.X.X.X.` ` N N N N N 5 5 O.O.O.F.F.!.!. + + +5 5 W.W.W.O O O O Z.Z.Z.6 6 7 7 K.K.K.t.t..+.+.+@ @ @ @ @ @ @ @ @ @ @ @ @ @ @ @ @ @ @ @ @ ",
"z z ++++++@+@+c.c.6.6.6.6.6.6.6.6.c.c.#+#+6.6.6.....R R ++++++Q Q #+#+#+6.6.c.c.6.6.6.6.6.#+#+#+#+#+J J R.R.R.@ @ @ @ @ @ @ @ @ @ @ @ @ @ @ @ @ @ @ @ @ ",
"z z ++++++@+@+c.c.6.6.6.6.6.6.6.6.c.c.#+#+6.6.6.....R R ++++++Q Q #+#+#+6.6.c.c.6.6.6.6.6.#+#+#+#+#+J J R.R.R.@ @ @ @ @ @ @ @ @ @ @ @ @ @ @ @ @ @ @ @ @ ",
"z z z z z =.=.$+$+%+%+%+t t &+&+&+*+*+=+=+_._._.l l l l J J J =.=.-+-+-+;+;+*+*+&+&+&+>+>+-+-+_._._.#.#..+.+.+@ @ @ @ @ @ @ @ @ @ @ @ @ @ @ @ @ @ @ @ @ ",
"z z z z z =.=.$+$+%+%+%+t t &+&+&+*+*+=+=+_._._.l l l l J J J =.=.-+-+-+;+;+*+*+&+&+&+>+>+-+-+_._._.#.#..+.+.+@ @ @ @ @ @ @ @ @ @ @ @ @ @ @ @ @ @ @ @ @ ",
"z z z z z =.=.$+$+%+%+%+t t &+&+&+*+*+=+=+_._._.l l l l J J J =.=.-+-+-+;+;+*+*+&+&+&+>+>+-+-+_._._.#.#..+.+.+@ @ @ @ @ @ @ @ @ @ @ @ @ @ @ @ @ @ @ @ @ ",
"J J l l l l l t.t.p.p.p.:.:.=.=.=.F.F.t.t.z z z z z l l ..........!.!.!._._.p.p.p.p.p.F.F.....R R R '.'..+.+.+@ @ @ @ @ @ @ @ @ @ @ @ @ @ @ @ @ @ @ @ @ ",
"J J l l l l l t.t.p.p.p.:.:.=.=.=.F.F.t.t.z z z z z l l ..........!.!.!._._.p.p.p.p.p.F.F.....R R R '.'..+.+.+@ @ @ @ @ @ @ @ @ @ @ @ @ @ @ @ @ @ @ @ @ ",
"l l ,+,+,+< < , , : : : : : , , , '+'+_ _ [ [ [ '.'.l l )+)+)+, , ) ) ) !+!+#.#.: : : ~+~+] ] / / / '.'..+.+.+@ @ @ @ @ @ @ @ @ @ @ @ @ @ @ @ @ @ @ @ @ ",
"l l ,+,+,+< < , , : : : : : , , , '+'+_ _ [ [ [ '.'.l l )+)+)+, , ) ) ) !+!+#.#.: : : ~+~+] ] / / / '.'..+.+.+@ @ @ @ @ @ @ @ @ @ @ @ @ @ @ @ @ @ @ @ @ ",
"z z {+{+{+4 4 4 4 4 4 4 4 4 4 4 4 4 4 4 4 ]+]+]+z z R R ^+^+^+4 4 4 4 4 N N X.X.X.X.X.` ` N N ]+]+]+A A `.`.`.@ @ @ @ @ @ @ @ @ @ @ @ @ @ @ @ @ @ @ @ @ ",
"z z {+{+{+4 4 4 4 4 4 4 4 4 4 4 4 4 4 4 4 ]+]+]+z z R R ^+^+^+4 4 4 4 4 N N X.X.X.X.X.` ` N N ]+]+]+A A `.`.`.@ @ @ @ @ @ @ @ @ @ @ @ @ @ @ @ @ @ @ @ @ ",
"z z {+{+{+4 4 4 4 4 4 4 4 4 4 4 4 4 4 4 4 ]+]+]+z z R R ^+^+^+4 4 4 4 4 N N X.X.X.X.X.` ` N N ]+]+]+A A `.`.`.@ @ @ @ @ @ @ @ @ @ @ @ @ @ @ @ @ @ @ @ @ ",
"R R /+/+/+4 4 4 4 4 4 4 4 4 4 4 4 4 4 4 4 Q Q Q z z J J _._._.4 4 4 4 4 4 4 N N N N N 5 5 5 5 (+(+(+'.'.N.N.N.@ @ @ @ @ @ @ @ @ @ @ @ @ @ @ @ @ @ @ @ @ ",
"R R /+/+/+4 4 4 4 4 4 4 4 4 4 4 4 4 4 4 4 Q Q Q z z J J _._._.4 4 4 4 4 4 4 N N N N N 5 5 5 5 (+(+(+'.'.N.N.N.@ @ @ @ @ @ @ @ @ @ @ @ @ @ @ @ @ @ @ @ @ ",
"J J v v v 4 4 4 4 4 4 4 4 4 4 4 4 4 4 4 4 6.6.6.!.!.!.!.v v v 4 4 4 4 4 4 4 5 5 5 5 5 5 5 _+_+ . . .#.#.s.s.s.@ @ @ @ @ @ @ @ @ @ @ @ @ @ @ @ @ @ @ @ @ ",
"J J v v v 4 4 4 4 4 4 4 4 4 4 4 4 4 4 4 4 6.6.6.!.!.!.!.v v v 4 4 4 4 4 4 4 5 5 5 5 5 5 5 _+_+ . . .#.#.s.s.s.@ @ @ @ @ @ @ @ @ @ @ @ @ @ @ @ @ @ @ @ @ ",
"!+!+:+:+:+4 4 4 4 4 4 4 4 4 4 4 4 4 4 4 4 *.*.*.+.+.J J _._._.4 4 4 4 4 4 4 4 4 _+_+_+4 4 4 4  . . .<+<+[+[+[+@ @ @ @ @ @ @ @ @ @ @ @ @ @ @ @ @ @ @ @ @ ",
"!+!+:+:+:+4 4 4 4 4 4 4 4 4 4 4 4 4 4 4 4 *.*.*.+.+.J J _._._.4 4 4 4 4 4 4 4 4 _+_+_+4 4 4 4  . . .<+<+[+[+[+@ @ @ @ @ @ @ @ @ @ @ @ @ @ @ @ @ @ @ @ @ ",
"!+!+:+:+:+4 4 4 4 4 4 4 4 4 4 4 4 4 4 4 4 *.*.*.+.+.J J _._._.4 4 4 4 4 4 4 4 4 _+_+_+4 4 4 4  . . .<+<+[+[+[+@ @ @ @ @ @ @ @ @ @ @ @ @ @ @ @ @ @ @ @ @ ",
"' ' }+}+}+|+|+ . .1+1+1+Q Q Q Q Q 2+2+Q Q 3+3+3+z z ! ! ;+;+;+G G 4+4+4+2+2+2+2+2+2+2+2+2+(+(+y y y 5+5+6+6+6+@ @ @ @ @ @ @ @ @ @ @ @ @ @ @ @ @ @ @ @ @ ",
"' ' }+}+}+|+|+ . .1+1+1+Q Q Q Q Q 2+2+Q Q 3+3+3+z z ! ! ;+;+;+G G 4+4+4+2+2+2+2+2+2+2+2+2+(+(+y y y 5+5+6+6+6+@ @ @ @ @ @ @ @ @ @ @ @ @ @ @ @ @ @ @ @ @ ",
", , W W W R R :.:.-+-+-+}+}+=+=+=+}+}+:.:.A A A : : , , , , , J J p.p.p.-+-+=+=+=+=+=+}+}+:.:.R R R 7+7+8+8+8+@ @ @ @ @ @ @ @ @ @ @ @ @ @ @ @ @ @ @ @ @ ",
", , W W W R R :.:.-+-+-+}+}+=+=+=+}+}+:.:.A A A : : , , , , , J J p.p.p.-+-+=+=+=+=+=+}+}+:.:.R R R 7+7+8+8+8+@ @ @ @ @ @ @ @ @ @ @ @ @ @ @ @ @ @ @ @ @ ",
", , W W W R R :.:.-+-+-+}+}+=+=+=+}+}+:.:.A A A : : , , , , , J J p.p.p.-+-+=+=+=+=+=+}+}+:.:.R R R 7+7+8+8+8+@ @ @ @ @ @ @ @ @ @ @ @ @ @ @ @ @ @ @ @ @ ",
"9+9+9+9+9+0+0+a+a+9+9+9+b+b+c+c+c+9+9+d+d+a+a+a+e+e+0+0+d+d+d+0+0+c+c+c+b+b+c+c+f+f+f+g+g+c+c+h+h+h+i+i+j+j+j+@ @ @ @ @ @ @ @ @ @ @ @ @ @ @ @ @ @ @ @ @ ",
"9+9+9+9+9+0+0+a+a+9+9+9+b+b+c+c+c+9+9+d+d+a+a+a+e+e+0+0+d+d+d+0+0+c+c+c+b+b+c+c+f+f+f+g+g+c+c+h+h+h+i+i+j+j+j+@ @ @ @ @ @ @ @ @ @ @ @ @ @ @ @ @ @ @ @ @ "};
